<svg xmlns="http://www.w3.org/2000/svg" xmlns:xlink="http://www.w3.org/1999/xlink" width="54" height="113" viewBox="0 0 54 113">
  <defs>
    <clipPath id="clip-path">
      <rect id="Retângulo_160" data-name="Retângulo 160" width="18" height="113" transform="translate(636 2030)" fill="#fff" stroke="#707070" stroke-width="1"/>
    </clipPath>
    <clipPath id="clip-path-2">
      <path id="Caminho_102" data-name="Caminho 102" d="M-327.475-476.878v-2.614h2.615v2.614Zm0-5.228v-2.614h2.615v2.614Zm0-5.228v-2.614h2.615v2.614Zm0,26.142v-2.614h2.615v2.614Zm0-5.228v-2.614h2.615v2.614Zm0-5.228v-2.614h2.615v2.614Zm0,26.142v-2.614h2.615v2.614Zm0-5.228v-2.614h2.615v2.614Zm0-5.228v-2.614h2.615v2.614Zm0,26.142v-2.614h2.615v2.614Zm0-5.228v-2.614h2.615v2.614Zm0-5.228v-2.614h2.615v2.614Zm0,26.142v-2.614h2.615v2.614Zm0-5.228v-2.614h2.615v2.614Zm0-5.228v-2.614h2.615v2.614Zm0,26.142v-2.614h2.615v2.614Zm0-5.228V-406.3h2.615v2.614Zm0-5.228v-2.614h2.615v2.614Zm0,26.142v-2.614h2.615v2.614Zm0-5.228v-2.614h2.615V-388Zm0-5.228v-2.614h2.615v2.614Zm0,26.142V-369.7h2.615v2.615Zm0-5.228v-2.615h2.615v2.615Zm0-5.228v-2.615h2.615v2.615Zm0,26.142v-2.614h2.615v2.614Zm0-5.228v-2.615h2.615v2.615Zm0-5.228v-2.615h2.615v2.615Zm0,26.142v-2.614h2.615v2.614Zm0-5.228v-2.615h2.615v2.615Zm0-5.228v-2.615h2.615v2.615Zm0,26.142v-2.615h2.615v2.615Zm0-5.228v-2.615h2.615v2.615Zm0-5.228V-333.1h2.615v2.615Zm0,26.142v-2.615h2.615v2.615Zm0-5.228v-2.615h2.615v2.615Zm0-5.228v-2.615h2.615v2.615Zm0,26.142v-2.615h2.615v2.615Zm0-5.228V-296.5h2.615v2.615Zm0-5.228v-2.615h2.615v2.615Zm0,26.142v-2.615h2.615v2.615Zm0-5.228v-2.615h2.615v2.615Zm0-5.228v-2.615h2.615v2.615Zm0,26.142V-259.9h2.615v2.615Zm0-5.228v-2.615h2.615v2.615Zm0-5.228v-2.615h2.615v2.615Zm-2.614-206.52v-2.615h2.614v2.615Zm0-5.228v-2.615h2.614v2.615Zm0-5.228v-2.614h2.614v2.614Zm0,26.142v-2.615h2.614v2.615Zm0-5.228v-2.614h2.614v2.614Zm0-5.228v-2.615h2.614v2.615Zm0,26.142v-2.615h2.614v2.615Zm0-5.228v-2.615h2.614v2.615Zm0-5.228v-2.615h2.614v2.615Zm0,26.142v-2.614h2.614v2.614Zm0-5.228v-2.615h2.614v2.615Zm0-5.228v-2.614h2.614v2.614Zm0,26.142v-2.615h2.614v2.615Zm0-5.228v-2.614h2.614v2.614Zm0-5.228V-424.6h2.614v2.614Zm0,26.142v-2.615h2.614v2.615Zm0-5.228v-2.615h2.614v2.615Zm0-5.228v-2.615h2.614v2.615Zm0,26.142v-2.615h2.614v2.615Zm0-5.228V-388h2.614v2.614Zm0-5.228v-2.614h2.614v2.614Zm0,26.142v-2.614h2.614v2.614Zm0-5.228v-2.614h2.614v2.614Zm0-5.228v-2.614h2.614v2.614Zm0,26.142V-351.4h2.614v2.614Zm0-5.228v-2.614h2.614v2.614Zm0-5.228v-2.614h2.614v2.614Zm0,26.142v-2.614h2.614v2.614Zm0-5.228v-2.614h2.614v2.614Zm0-5.228v-2.614h2.614v2.614Zm0,26.142v-2.614h2.614v2.614Zm0-5.228v-2.614h2.614v2.614Zm0-5.228v-2.614h2.614v2.614Zm0,26.142v-2.614h2.614v2.614Zm0-5.228v-2.614h2.614v2.614Zm0-5.228V-314.8h2.614v2.614Zm0,26.142v-2.614h2.614v2.614Zm0-5.228v-2.614h2.614v2.614Zm0-5.228v-2.614h2.614v2.614Zm0,26.142v-2.614h2.614v2.614Zm0-5.228V-278.2h2.614v2.614Zm0-5.228v-2.614h2.614v2.614Zm0,26.142v-2.614h2.614v2.614Zm0-5.228v-2.614h2.614v2.614Zm0-5.228v-2.614h2.614v2.614ZM-332.7-476.878v-2.614h2.615v2.614Zm0-5.228v-2.614h2.615v2.614Zm0-5.228v-2.614h2.615v2.614Zm0,26.142v-2.614h2.615v2.614Zm0-5.228v-2.614h2.615v2.614Zm0-5.228v-2.614h2.615v2.614Zm0,26.142v-2.614h2.615v2.614Zm0-5.228v-2.614h2.615v2.614Zm0-5.228v-2.614h2.615v2.614Zm0,26.142v-2.614h2.615v2.614Zm0-5.228v-2.614h2.615v2.614Zm0-5.228v-2.614h2.615v2.614Zm0,26.142v-2.614h2.615v2.614Zm0-5.228v-2.614h2.615v2.614Zm0-5.228v-2.614h2.615v2.614Zm0,26.142v-2.614h2.615v2.614Zm0-5.228V-406.3h2.615v2.614Zm0-5.228v-2.614h2.615v2.614Zm0,26.142v-2.614h2.615v2.614Zm0-5.228v-2.614h2.615V-388Zm0-5.228v-2.614h2.615v2.614Zm0,26.142V-369.7h2.615v2.615Zm0-5.228v-2.615h2.615v2.615Zm0-5.228v-2.615h2.615v2.615Zm0,26.142v-2.614h2.615v2.614Zm0-5.228v-2.615h2.615v2.615Zm0-5.228v-2.615h2.615v2.615Zm0,26.142v-2.614h2.615v2.614Zm0-5.228v-2.615h2.615v2.615Zm0-5.228v-2.615h2.615v2.615Zm0,26.142v-2.615h2.615v2.615Zm0-5.228v-2.615h2.615v2.615Zm0-5.228V-333.1h2.615v2.615Zm0,26.142v-2.615h2.615v2.615Zm0-5.228v-2.615h2.615v2.615Zm0-5.228v-2.615h2.615v2.615Zm0,26.142v-2.615h2.615v2.615Zm0-5.228V-296.5h2.615v2.615Zm0-5.228v-2.615h2.615v2.615Zm0,26.142v-2.615h2.615v2.615Zm0-5.228v-2.615h2.615v2.615Zm0-5.228v-2.615h2.615v2.615Zm0,26.142V-259.9h2.615v2.615Zm0-5.228v-2.615h2.615v2.615Zm0-5.228v-2.615h2.615v2.615Zm-2.614-206.52v-2.615h2.614v2.615Zm0-5.228v-2.615h2.614v2.615Zm0-5.228v-2.614h2.614v2.614Zm0,26.142v-2.615h2.614v2.615Zm0-5.228v-2.614h2.614v2.614Zm0-5.228v-2.615h2.614v2.615Zm0,26.142v-2.615h2.614v2.615Zm0-5.228v-2.615h2.614v2.615Zm0-5.228v-2.615h2.614v2.615Zm0,26.142v-2.614h2.614v2.614Zm0-5.228v-2.615h2.614v2.615Zm0-5.228v-2.614h2.614v2.614Zm0,26.142v-2.615h2.614v2.615Zm0-5.228v-2.614h2.614v2.614Zm0-5.228V-424.6h2.614v2.614Zm0,26.142v-2.615h2.614v2.615Zm0-5.228v-2.615h2.614v2.615Zm0-5.228v-2.615h2.614v2.615Zm0,26.142v-2.615h2.614v2.615Zm0-5.228V-388h2.614v2.614Zm0-5.228v-2.614h2.614v2.614Zm0,26.142v-2.614h2.614v2.614Zm0-5.228v-2.614h2.614v2.614Zm0-5.228v-2.614h2.614v2.614Zm0,26.142V-351.4h2.614v2.614Zm0-5.228v-2.614h2.614v2.614Zm0-5.228v-2.614h2.614v2.614Zm0,26.142v-2.614h2.614v2.614Zm0-5.228v-2.614h2.614v2.614Zm0-5.228v-2.614h2.614v2.614Zm0,26.142v-2.614h2.614v2.614Zm0-5.228v-2.614h2.614v2.614Zm0-5.228v-2.614h2.614v2.614Zm0,26.142v-2.614h2.614v2.614Zm0-5.228v-2.614h2.614v2.614Zm0-5.228V-314.8h2.614v2.614Zm0,26.142v-2.614h2.614v2.614Zm0-5.228v-2.614h2.614v2.614Zm0-5.228v-2.614h2.614v2.614Zm0,26.142v-2.614h2.614v2.614Zm0-5.228V-278.2h2.614v2.614Zm0-5.228v-2.614h2.614v2.614Zm0,26.142v-2.614h2.614v2.614Zm0-5.228v-2.614h2.614v2.614Zm0-5.228v-2.614h2.614v2.614Zm-2.615-211.748v-2.614h2.615v2.614Zm0-5.228v-2.614h2.615v2.614Zm0-5.228v-2.614h2.615v2.614Zm0,26.142v-2.614h2.615v2.614Zm0-5.228v-2.614h2.615v2.614Zm0-5.228v-2.614h2.615v2.614Zm0,26.142v-2.614h2.615v2.614Zm0-5.228v-2.614h2.615v2.614Zm0-5.228v-2.614h2.615v2.614Zm0,26.142v-2.614h2.615v2.614Zm0-5.228v-2.614h2.615v2.614Zm0-5.228v-2.614h2.615v2.614Zm0,26.142v-2.614h2.615v2.614Zm0-5.228v-2.614h2.615v2.614Zm0-5.228v-2.614h2.615v2.614Zm0,26.142v-2.614h2.615v2.614Zm0-5.228V-406.3h2.615v2.614Zm0-5.228v-2.614h2.615v2.614Zm0,26.142v-2.614h2.615v2.614Zm0-5.228v-2.614h2.615V-388Zm0-5.228v-2.614h2.615v2.614Zm0,26.142V-369.7h2.615v2.615Zm0-5.228v-2.615h2.615v2.615Zm0-5.228v-2.615h2.615v2.615Zm0,26.142v-2.614h2.615v2.614Zm0-5.228v-2.615h2.615v2.615Zm0-5.228v-2.615h2.615v2.615Zm0,26.142v-2.614h2.615v2.614Zm0-5.228v-2.615h2.615v2.615Zm0-5.228v-2.615h2.615v2.615Zm0,26.142v-2.615h2.615v2.615Zm0-5.228v-2.615h2.615v2.615Zm0-5.228V-333.1h2.615v2.615Zm0,26.142v-2.615h2.615v2.615Zm0-5.228v-2.615h2.615v2.615Zm0-5.228v-2.615h2.615v2.615Zm0,26.142v-2.615h2.615v2.615Zm0-5.228V-296.5h2.615v2.615Zm0-5.228v-2.615h2.615v2.615Zm0,26.142v-2.615h2.615v2.615Zm0-5.228v-2.615h2.615v2.615Zm0-5.228v-2.615h2.615v2.615Zm0,26.142V-259.9h2.615v2.615Zm0-5.228v-2.615h2.615v2.615Zm0-5.228v-2.615h2.615v2.615Zm-2.614-206.52v-2.615h2.614v2.615Zm0-5.228v-2.615h2.614v2.615Zm0-5.228v-2.614h2.614v2.614Zm0,26.142v-2.615h2.614v2.615Zm0-5.228v-2.614h2.614v2.614Zm0-5.228v-2.615h2.614v2.615Zm0,26.142v-2.615h2.614v2.615Zm0-5.228v-2.615h2.614v2.615Zm0-5.228v-2.615h2.614v2.615Zm0,26.142v-2.614h2.614v2.614Zm0-5.228v-2.615h2.614v2.615Zm0-5.228v-2.614h2.614v2.614Zm0,26.142v-2.615h2.614v2.615Zm0-5.228v-2.614h2.614v2.614Zm0-5.228V-424.6h2.614v2.614Zm0,26.142v-2.615h2.614v2.615Zm0-5.228v-2.615h2.614v2.615Zm0-5.228v-2.615h2.614v2.615Zm0,26.142v-2.615h2.614v2.615Zm0-5.228V-388h2.614v2.614Zm0-5.228v-2.614h2.614v2.614Zm0,26.142v-2.614h2.614v2.614Zm0-5.228v-2.614h2.614v2.614Zm0-5.228v-2.614h2.614v2.614Zm0,26.142V-351.4h2.614v2.614Zm0-5.228v-2.614h2.614v2.614Zm0-5.228v-2.614h2.614v2.614Zm0,26.142v-2.614h2.614v2.614Zm0-5.228v-2.614h2.614v2.614Zm0-5.228v-2.614h2.614v2.614Zm0,26.142v-2.614h2.614v2.614Zm0-5.228v-2.614h2.614v2.614Zm0-5.228v-2.614h2.614v2.614Zm0,26.142v-2.614h2.614v2.614Zm0-5.228v-2.614h2.614v2.614Zm0-5.228V-314.8h2.614v2.614Zm0,26.142v-2.614h2.614v2.614Zm0-5.228v-2.614h2.614v2.614Zm0-5.228v-2.614h2.614v2.614Zm0,26.142v-2.614h2.614v2.614Zm0-5.228V-278.2h2.614v2.614Zm0-5.228v-2.614h2.614v2.614Zm0,26.142v-2.614h2.614v2.614Zm0-5.228v-2.614h2.614v2.614Zm0-5.228v-2.614h2.614v2.614Zm-2.615-211.748v-2.614h2.615v2.614Zm0-5.228v-2.614h2.615v2.614Zm0-5.228v-2.614h2.615v2.614Zm0,26.142v-2.614h2.615v2.614Zm0-5.228v-2.614h2.615v2.614Zm0-5.228v-2.614h2.615v2.614Zm0,26.142v-2.614h2.615v2.614Zm0-5.228v-2.614h2.615v2.614Zm0-5.228v-2.614h2.615v2.614Zm0,26.142v-2.614h2.615v2.614Zm0-5.228v-2.614h2.615v2.614Zm0-5.228v-2.614h2.615v2.614Zm0,26.142v-2.614h2.615v2.614Zm0-5.228v-2.614h2.615v2.614Zm0-5.228v-2.614h2.615v2.614Zm0,26.142v-2.614h2.615v2.614Zm0-5.228V-406.3h2.615v2.614Zm0-5.228v-2.614h2.615v2.614Zm0,26.142v-2.614h2.615v2.614Zm0-5.228v-2.614h2.615V-388Zm0-5.228v-2.614h2.615v2.614Zm0,26.142V-369.7h2.615v2.615Zm0-5.228v-2.615h2.615v2.615Zm0-5.228v-2.615h2.615v2.615Zm0,26.142v-2.614h2.615v2.614Zm0-5.228v-2.615h2.615v2.615Zm0-5.228v-2.615h2.615v2.615Zm0,26.142v-2.614h2.615v2.614Zm0-5.228v-2.615h2.615v2.615Zm0-5.228v-2.615h2.615v2.615Zm0,26.142v-2.615h2.615v2.615Zm0-5.228v-2.615h2.615v2.615Zm0-5.228V-333.1h2.615v2.615Zm0,26.142v-2.615h2.615v2.615Zm0-5.228v-2.615h2.615v2.615Zm0-5.228v-2.615h2.615v2.615Zm0,26.142v-2.615h2.615v2.615Zm0-5.228V-296.5h2.615v2.615Zm0-5.228v-2.615h2.615v2.615Zm0,26.142v-2.615h2.615v2.615Zm0-5.228v-2.615h2.615v2.615Zm0-5.228v-2.615h2.615v2.615Zm0,26.142V-259.9h2.615v2.615Zm0-5.228v-2.615h2.615v2.615Zm0-5.228v-2.615h2.615v2.615Z" transform="translate(343.16 489.949)" fill="none" clip-rule="evenodd"/>
    </clipPath>
    <clipPath id="clip-path-3">
      <rect id="Retângulo_32" data-name="Retângulo 32" width="1254.805" height="705.828" fill="none"/>
    </clipPath>
  </defs>
  <g id="Grupo_441" data-name="Grupo 441" transform="translate(-636 -2028)">
    <g id="Grupo_de_máscara_3" data-name="Grupo de máscara 3" transform="translate(0 -2)" clip-path="url(#clip-path)">
      <g id="Grupo_140" data-name="Grupo 140" transform="translate(635.769 2019.556)" clip-path="url(#clip-path-2)">
        <g id="Grupo_139" data-name="Grupo 139" transform="translate(-507.804 -572.505)">
          <g id="Grupo_138" data-name="Grupo 138" clip-path="url(#clip-path-3)">
            <rect id="Retângulo_31" data-name="Retângulo 31" width="24.835" height="241.811" transform="translate(504.536 569.237)" fill="#534998"/>
          </g>
        </g>
      </g>
    </g>
    <g id="Grupo_de_máscara_4" data-name="Grupo de máscara 4" transform="translate(18 -2)" clip-path="url(#clip-path)">
      <g id="Grupo_437" data-name="Grupo 437" transform="translate(635.769 2019.556)" clip-path="url(#clip-path-2)">
        <g id="Grupo_436" data-name="Grupo 436" transform="translate(-507.804 -572.505)">
          <g id="Grupo_435" data-name="Grupo 435" clip-path="url(#clip-path-3)">
            <rect id="Retângulo_161" data-name="Retângulo 161" width="24.835" height="241.811" transform="translate(504.536 569.237)" fill="#534998"/>
          </g>
        </g>
      </g>
    </g>
    <g id="Grupo_de_máscara_5" data-name="Grupo de máscara 5" transform="translate(36 -2)" clip-path="url(#clip-path)">
      <g id="Grupo_440" data-name="Grupo 440" transform="translate(635.769 2019.556)" clip-path="url(#clip-path-2)">
        <g id="Grupo_439" data-name="Grupo 439" transform="translate(-507.804 -572.505)">
          <g id="Grupo_438" data-name="Grupo 438" clip-path="url(#clip-path-3)">
            <rect id="Retângulo_164" data-name="Retângulo 164" width="24.835" height="241.811" transform="translate(504.536 569.237)" fill="#534998"/>
          </g>
        </g>
      </g>
    </g>
  </g>
</svg>
