<svg xmlns="http://www.w3.org/2000/svg" width="28" height="28" viewBox="0 0 28 28">
  <g id="birthday" transform="translate(0 0)">
    <g id="Grupo_362" data-name="Grupo 362" transform="translate(0)">
      <g id="Grupo_361" data-name="Grupo 361">
        <path id="Caminho_264" data-name="Caminho 264" d="M18.914,15.413a14.644,14.644,0,0,1,3.115-1.056.547.547,0,1,0-.226-1.07,15.9,15.9,0,0,0-3.594,1.25c-.673-.8-1.443-1.641-2.274-2.472-.883-.883-1.775-1.7-2.623-2.4a12.356,12.356,0,0,0,1.785-3.1A16.21,16.21,0,0,0,16.16.546a.547.547,0,1,0-1.094,0,13.212,13.212,0,0,1-2.61,8.439c-.327-.249-.644-.479-.947-.683C9.889,7.209,8.924,6.953,8.384,7.473l-.012.011,0,0h0a.9.9,0,0,0-.256.506L.042,27.24a.547.547,0,0,0,.716.716h0l19.246-8.071a.9.9,0,0,0,.469-.222l.027-.025.011-.01v0l.011-.012c.52-.54.264-1.5-.829-3.126C19.465,16.146,19.2,15.786,18.914,15.413ZM4.337,24.1a3.679,3.679,0,0,1-.49,1.372l-2.279.956,2.315-5.52A6.076,6.076,0,0,1,4.337,24.1ZM7.7,22.252a3.5,3.5,0,0,1-.972,2.013l-1.441.6a7.162,7.162,0,0,0-.833-5.327L6.1,15.635C7.8,18.859,7.923,20.995,7.7,22.252Zm1.951.787-1.179.494a5.521,5.521,0,0,0,.283-.973c.438-2.234-.277-5-2.123-8.213l.592-1.411A9.284,9.284,0,0,1,8.445,14.8a.547.547,0,1,0,1-.432,10.377,10.377,0,0,0-1.756-2.546l.9-2.156c.158.29.355.609.59.957q.243.36.53.745a10.285,10.285,0,0,1,1.463,7.683A11.105,11.105,0,0,1,9.653,23.04Zm4.214-1.767-2.6,1.089a13.784,13.784,0,0,0,.985-3.107,11.891,11.891,0,0,0-.1-5.028q.389.41.8.821c.818.818,1.644,1.577,2.435,2.242A5.418,5.418,0,0,1,13.867,21.273Zm1.885-.79a7.387,7.387,0,0,0,.667-2.361c.33.252.65.484.956.69.349.235.667.431.958.59Zm1.923-2.793a32.4,32.4,0,0,1-3.952-3.415,32.4,32.4,0,0,1-3.414-3.952A6.373,6.373,0,0,1,9.217,8.332a6.376,6.376,0,0,1,1.991,1.092c.171.121.346.25.524.385-.038.039-.076.079-.115.118a.547.547,0,1,0,.773.773q.1-.1.2-.209c.83.686,1.707,1.486,2.566,2.346.739.739,1.434,1.491,2.051,2.215q-.148.082-.3.168a.547.547,0,1,0,.547.947c.152-.088.3-.172.456-.254.238.3.458.6.657.876a6.372,6.372,0,0,1,1.092,1.991A6.376,6.376,0,0,1,17.676,17.689Z" transform="translate(0 0.001)" fill="#824bef"/>
        <path id="Caminho_265" data-name="Caminho 265" d="M162.808,282.956a.549.549,0,1,0,.019.047C162.821,282.988,162.814,282.97,162.808,282.956Z" transform="translate(-152.916 -267.177)" fill="#824bef"/>
        <path id="Caminho_266" data-name="Caminho 266" d="M370.664,103a.547.547,0,0,0,.773,0,7.783,7.783,0,0,1,4.647-1.9.547.547,0,0,0-.088-1.09,8.913,8.913,0,0,0-5.332,2.215A.547.547,0,0,0,370.664,103Z" transform="translate(-350.243 -94.54)" fill="#824bef"/>
        <path id="Caminho_267" data-name="Caminho 267" d="M492.035,101.468l-.047-.012a.547.547,0,1,0-.264,1.061l.028.007a.547.547,0,1,0,.283-1.056Z" transform="translate(-464.44 -95.892)" fill="#824bef"/>
        <path id="Caminho_268" data-name="Caminho 268" d="M64.051,45.808H64.6v.547a.547.547,0,0,0,1.094,0v-.547h.547a.547.547,0,1,0,0-1.094h-.547v-.547a.547.547,0,0,0-1.094,0v.547h-.547a.547.547,0,0,0,0,1.094Z" transform="translate(-60.031 -41.235)" fill="#824bef"/>
        <path id="Caminho_269" data-name="Caminho 269" d="M298.049,142.807h.547v.547a.547.547,0,1,0,1.094,0v-.547h.547a.547.547,0,1,0,0-1.094h-.547v-.547a.547.547,0,1,0-1.094,0v.547h-.547a.547.547,0,0,0,0,1.094Z" transform="translate(-281.233 -132.929)" fill="#824bef"/>
        <path id="Caminho_270" data-name="Caminho 270" d="M399.235,398.712h-.547v-.547a.547.547,0,1,0-1.094,0v.547h-.547a.547.547,0,0,0,0,1.094h.547v.547a.547.547,0,1,0,1.094,0v-.547h.547a.547.547,0,0,0,0-1.094Z" transform="translate(-374.818 -375.874)" fill="#824bef"/>
        <path id="Caminho_271" data-name="Caminho 271" d="M361.61,3.282a1.641,1.641,0,1,0-1.641-1.641A1.642,1.642,0,0,0,361.61,3.282Zm0-2.187a.547.547,0,1,1-.547.547A.547.547,0,0,1,361.61,1.095Z" transform="translate(-340.283 -0.001)" fill="#824bef"/>
        <path id="Caminho_272" data-name="Caminho 272" d="M424.142,173.619a1.641,1.641,0,1,0,1.641,1.641A1.642,1.642,0,0,0,424.142,173.619Zm0,2.187a.547.547,0,1,1,.547-.547A.547.547,0,0,1,424.142,175.806Z" transform="translate(-399.396 -164.124)" fill="#824bef"/>
        <path id="Caminho_273" data-name="Caminho 273" d="M170.144,38.9a1.641,1.641,0,1,0-1.641-1.641A1.642,1.642,0,0,0,170.144,38.9Zm0-2.187a.547.547,0,1,1-.547.547A.547.547,0,0,1,170.144,36.714Z" transform="translate(-159.288 -33.672)" fill="#824bef"/>
        <path id="Caminho_274" data-name="Caminho 274" d="M430.284,284.6a.547.547,0,1,0-.547.547A.548.548,0,0,0,430.284,284.6Z" transform="translate(-405.719 -268.524)" fill="#824bef"/>
        <path id="Caminho_275" data-name="Caminho 275" d="M325.736,76.154a.547.547,0,1,0-.547-.547A.548.548,0,0,0,325.736,76.154Z" transform="translate(-307.405 -70.955)" fill="#824bef"/>
        <path id="Caminho_276" data-name="Caminho 276" d="M459.735,359.057a.547.547,0,1,0,.547.547A.548.548,0,0,0,459.735,359.057Z" transform="translate(-434.077 -339.421)" fill="#824bef"/>
        <path id="Caminho_277" data-name="Caminho 277" d="M129.739,11.095a.547.547,0,1,0-.547-.547A.548.548,0,0,0,129.739,11.095Z" transform="translate(-122.127 -9.454)" fill="#824bef"/>
      </g>
    </g>
  </g>
</svg>
