<svg xmlns="http://www.w3.org/2000/svg" width="15.33" height="25.277" viewBox="0 0 15.33 25.277">
  <g id="Grupo_471" data-name="Grupo 471" transform="translate(-613.328 -2227.867)">
    <path id="Caminho_321" data-name="Caminho 321" d="M1850.936,1376.293s2.88-3.579,6.244-.818,8.086-1.471,8.086-1.471v6.864h-14.33Z" transform="translate(-1237.107 871.777)" fill="none" stroke="#824bef" stroke-width="1"/>
    <g id="Grupo_472" data-name="Grupo 472" transform="translate(613.569 2228.367)">
      <path id="Caminho_320" data-name="Caminho 320" d="M1852.891,1281.766h10.324v3.14l2.022,3.335v17.277h-14.3V1288.24l1.955-3.335Z" transform="translate(-1850.677 -1281.766)" fill="none" stroke="#824bef" stroke-width="1"/>
      <g id="Grupo_471-2" data-name="Grupo 471" transform="translate(3.132 9.636)">
        <g id="Ret창ngulo_183" data-name="Ret창ngulo 183" transform="translate(0.299 -0.073)" fill="none" stroke="#824bef" stroke-width="1">
          <rect width="2" height="2" rx="1" stroke="none"/>
          <rect x="0.5" y="0.5" width="1" height="1" rx="0.5" fill="none"/>
        </g>
        <g id="Ret창ngulo_184" data-name="Ret창ngulo 184" transform="translate(7.299 -0.073)" fill="none" stroke="#824bef" stroke-width="1">
          <rect width="2" height="2" rx="1" stroke="none"/>
          <rect x="0.5" y="0.5" width="1" height="1" rx="0.5" fill="none"/>
        </g>
        <path id="Caminho_322" data-name="Caminho 322" d="M1857,1364.874s2.675,2.006,5.036,0" transform="translate(-1854.88 -1361.429)" fill="none" stroke="#824bef" stroke-linecap="round" stroke-width="1"/>
      </g>
      <path id="Caminho_323" data-name="Caminho 323" d="M1853.569,1353.717H1864" transform="translate(-1851.449 -1350.642)" fill="none" stroke="#824bef" stroke-width="1"/>
      <path id="Caminho_324" data-name="Caminho 324" d="M1853.569,1353.717h14.56" transform="translate(-1853.569 -1347.108)" fill="none" stroke="#824bef" stroke-width="1"/>
    </g>
  </g>
</svg>
