<svg xmlns="http://www.w3.org/2000/svg" width="27.866" height="24.855" viewBox="0 0 27.866 24.855">
  <g id="snooker" transform="translate(0 -27.657)">
    <g id="Grupo_475" data-name="Grupo 475" transform="translate(0 27.657)">
      <path id="Caminho_325" data-name="Caminho 325" d="M27.181,32.38v0a7.957,7.957,0,0,0-14.147-.765A7.955,7.955,0,0,0,.684,34.5v0a7.973,7.973,0,0,0,0,6.458l0,0A7.913,7.913,0,0,0,6.9,45.627a9.151,9.151,0,0,0,8.866,6.886,9.228,9.228,0,0,0,4.362-1.093.544.544,0,1,0-.517-.958,8.126,8.126,0,0,1-9.541-1.4,8.075,8.075,0,0,1,11.42-11.42,8.12,8.12,0,0,1,1.387,9.567.544.544,0,1,0,.956.52A9.234,9.234,0,0,0,24.863,42.1q-.016-.117-.035-.233a7.988,7.988,0,0,0,2.353-3.021,7.974,7.974,0,0,0,0-6.464ZM7.955,30.867a6.878,6.878,0,0,1,5.876,3.312H2.079A6.878,6.878,0,0,1,7.955,30.867ZM2.078,41.289H6.852a9.315,9.315,0,0,0-.161,3.2A6.812,6.812,0,0,1,2.078,41.289ZM9.3,36.87A9.134,9.134,0,0,0,7.174,40.2H1.545a6.9,6.9,0,0,1,0-4.932h9.912A9.2,9.2,0,0,0,9.3,36.87ZM26.187,38.4a6.89,6.89,0,0,1-1.635,2.271,9.174,9.174,0,0,0-8.767-6.486q-.35,0-.7.026a7.938,7.938,0,0,0-1.243-1.823,6.869,6.869,0,0,1,12.336.424l.009.021a6.885,6.885,0,0,1,0,5.568Z" transform="translate(0 -27.657)" fill="#824bef"/>
      <g id="Grupo_473" data-name="Grupo 473" transform="translate(21.326 21.256)">
        <path id="Caminho_326" data-name="Caminho 326" d="M392.375,419.29a.544.544,0,1,1,.535-.446A.549.549,0,0,1,392.375,419.29Z" transform="translate(-391.831 -418.203)" fill="#824bef"/>
      </g>
      <path id="Caminho_327" data-name="Caminho 327" d="M259.269,267.168a1.489,1.489,0,1,0-2.43,0,1.84,1.84,0,1,0,2.43,0Zm-1.616-.86a.4.4,0,1,1,.4.4A.4.4,0,0,1,257.654,266.308Zm.4,2.993a.752.752,0,1,1,.752-.752A.753.753,0,0,1,258.054,269.3Z" transform="translate(-242.269 -251.911)" fill="#824bef"/>
      <g id="Grupo_474" data-name="Grupo 474" transform="translate(10.713 10.621)">
        <path id="Caminho_328" data-name="Caminho 328" d="M201.911,232.949a5.072,5.072,0,1,1,5.072-5.072A5.077,5.077,0,0,1,201.911,232.949Zm0-9.055a3.983,3.983,0,1,0,3.983,3.983A3.988,3.988,0,0,0,201.911,223.895Z" transform="translate(-196.839 -222.806)" fill="#824bef"/>
      </g>
    </g>
  </g>
</svg>
