<svg id="play-button_1_" data-name="play-button (1)" xmlns="http://www.w3.org/2000/svg" width="45.05" height="45.05" viewBox="0 0 45.05 45.05">
  <g id="Grupo_358" data-name="Grupo 358" transform="translate(0)">
    <g id="Grupo_357" data-name="Grupo 357">
      <path id="Caminho_261" data-name="Caminho 261" d="M22.525,0A22.525,22.525,0,1,0,45.05,22.525,22.55,22.55,0,0,0,22.525,0Zm0,43.173A20.648,20.648,0,1,1,43.173,22.525,20.671,20.671,0,0,1,22.525,43.173Z" transform="translate(0)" fill="#4c63f7"/>
      <path id="Caminho_262" data-name="Caminho 262" d="M206.586,157.927l-13.139-8.447a.939.939,0,0,0-1.446.789v16.894a.938.938,0,0,0,1.446.789l13.139-8.447a.938.938,0,0,0,0-1.578Zm-12.709,7.517V151.989l10.465,6.727Z" transform="translate(-175.106 -136.192)" fill="#4c63f7"/>
      <path id="Caminho_263" data-name="Caminho 263" d="M21.768,18.084V33.169l12.493-7.5Z" transform="translate(-3.943 -3.276)" fill="#4c63f7"/>
    </g>
  </g>
</svg>
