<svg xmlns="http://www.w3.org/2000/svg" xmlns:xlink="http://www.w3.org/1999/xlink" width="59" height="59" viewBox="0 0 59 59">
  <defs>
    <filter id="Retângulo_70" x="0" y="0" width="59" height="59" filterUnits="userSpaceOnUse">
      <feOffset dy="3" input="SourceAlpha"/>
      <feGaussianBlur stdDeviation="3" result="blur"/>
      <feFlood flood-opacity="0.161"/>
      <feComposite operator="in" in2="blur"/>
      <feComposite in="SourceGraphic"/>
    </filter>
  </defs>
  <g id="Grupo_212" data-name="Grupo 212" transform="translate(-232 -485)">
    <g transform="matrix(1, 0, 0, 1, 232, 485)" filter="url(#Retângulo_70)">
      <g id="Retângulo_70-2" data-name="Retângulo 70" transform="translate(9 6)" fill="#fff" stroke="#f0f0f0" stroke-width="1">
        <rect width="41" height="41" rx="20.5" stroke="none"/>
        <rect x="0.5" y="0.5" width="40" height="40" rx="20" fill="none"/>
      </g>
    </g>
    <path id="União_1" data-name="União 1" d="M15.3-77.814a1,1,0,0,1-.818-.287L6.707-85.879a1,1,0,0,1,0-1.414,1,1,0,0,1,1.415,0L15.3-80.111l7.182-7.182a1,1,0,0,1,1.414,0,1,1,0,0,1,0,1.414L16.122-78.1a1,1,0,0,1-.707.293A1.007,1.007,0,0,1,15.3-77.814Z" transform="translate(246.586 594.586)" fill="#4c63f7"/>
  </g>
</svg>
