<svg xmlns="http://www.w3.org/2000/svg" xmlns:xlink="http://www.w3.org/1999/xlink" width="50" height="150" viewBox="0 0 50 150">
  <defs>
    <clipPath id="clip-path">
      <rect id="Retângulo_176" data-name="Retângulo 176" width="50" height="150" transform="translate(334 1535)" fill="#fff" stroke="#707070" stroke-width="1"/>
    </clipPath>
    <clipPath id="clip-path-2">
      <rect id="Retângulo_172" data-name="Retângulo 172" width="18" height="113" transform="translate(636 2030)" fill="#9f39fa" stroke="#707070" stroke-width="1"/>
    </clipPath>
    <clipPath id="clip-path-3">
      <path id="Caminho_266" data-name="Caminho 266" d="M-327.475-476.878v-2.614h2.615v2.614Zm0-5.228v-2.614h2.615v2.614Zm0-5.228v-2.614h2.615v2.614Zm0,26.142v-2.614h2.615v2.614Zm0-5.228v-2.614h2.615v2.614Zm0-5.228v-2.614h2.615v2.614Zm0,26.142v-2.614h2.615v2.614Zm0-5.228v-2.614h2.615v2.614Zm0-5.228v-2.614h2.615v2.614Zm0,26.142v-2.614h2.615v2.614Zm0-5.228v-2.614h2.615v2.614Zm0-5.228v-2.614h2.615v2.614Zm0,26.142v-2.614h2.615v2.614Zm0-5.228v-2.614h2.615v2.614Zm0-5.228v-2.614h2.615v2.614Zm0,26.142v-2.614h2.615v2.614Zm0-5.228V-406.3h2.615v2.614Zm0-5.228v-2.614h2.615v2.614Zm0,26.142v-2.614h2.615v2.614Zm0-5.228v-2.614h2.615V-388Zm0-5.228v-2.614h2.615v2.614Zm0,26.142V-369.7h2.615v2.615Zm0-5.228v-2.615h2.615v2.615Zm0-5.228v-2.615h2.615v2.615Zm0,26.142v-2.614h2.615v2.614Zm0-5.228v-2.615h2.615v2.615Zm0-5.228v-2.615h2.615v2.615Zm0,26.142v-2.614h2.615v2.614Zm0-5.228v-2.615h2.615v2.615Zm0-5.228v-2.615h2.615v2.615Zm0,26.142v-2.615h2.615v2.615Zm0-5.228v-2.615h2.615v2.615Zm0-5.228V-333.1h2.615v2.615Zm0,26.142v-2.615h2.615v2.615Zm0-5.228v-2.615h2.615v2.615Zm0-5.228v-2.615h2.615v2.615Zm0,26.142v-2.615h2.615v2.615Zm0-5.228V-296.5h2.615v2.615Zm0-5.228v-2.615h2.615v2.615Zm0,26.142v-2.615h2.615v2.615Zm0-5.228v-2.615h2.615v2.615Zm0-5.228v-2.615h2.615v2.615Zm0,26.142V-259.9h2.615v2.615Zm0-5.228v-2.615h2.615v2.615Zm0-5.228v-2.615h2.615v2.615Zm-2.614-206.52v-2.615h2.614v2.615Zm0-5.228v-2.615h2.614v2.615Zm0-5.228v-2.614h2.614v2.614Zm0,26.142v-2.615h2.614v2.615Zm0-5.228v-2.614h2.614v2.614Zm0-5.228v-2.615h2.614v2.615Zm0,26.142v-2.615h2.614v2.615Zm0-5.228v-2.615h2.614v2.615Zm0-5.228v-2.615h2.614v2.615Zm0,26.142v-2.614h2.614v2.614Zm0-5.228v-2.615h2.614v2.615Zm0-5.228v-2.614h2.614v2.614Zm0,26.142v-2.615h2.614v2.615Zm0-5.228v-2.614h2.614v2.614Zm0-5.228V-424.6h2.614v2.614Zm0,26.142v-2.615h2.614v2.615Zm0-5.228v-2.615h2.614v2.615Zm0-5.228v-2.615h2.614v2.615Zm0,26.142v-2.615h2.614v2.615Zm0-5.228V-388h2.614v2.614Zm0-5.228v-2.614h2.614v2.614Zm0,26.142v-2.614h2.614v2.614Zm0-5.228v-2.614h2.614v2.614Zm0-5.228v-2.614h2.614v2.614Zm0,26.142V-351.4h2.614v2.614Zm0-5.228v-2.614h2.614v2.614Zm0-5.228v-2.614h2.614v2.614Zm0,26.142v-2.614h2.614v2.614Zm0-5.228v-2.614h2.614v2.614Zm0-5.228v-2.614h2.614v2.614Zm0,26.142v-2.614h2.614v2.614Zm0-5.228v-2.614h2.614v2.614Zm0-5.228v-2.614h2.614v2.614Zm0,26.142v-2.614h2.614v2.614Zm0-5.228v-2.614h2.614v2.614Zm0-5.228V-314.8h2.614v2.614Zm0,26.142v-2.614h2.614v2.614Zm0-5.228v-2.614h2.614v2.614Zm0-5.228v-2.614h2.614v2.614Zm0,26.142v-2.614h2.614v2.614Zm0-5.228V-278.2h2.614v2.614Zm0-5.228v-2.614h2.614v2.614Zm0,26.142v-2.614h2.614v2.614Zm0-5.228v-2.614h2.614v2.614Zm0-5.228v-2.614h2.614v2.614ZM-332.7-476.878v-2.614h2.615v2.614Zm0-5.228v-2.614h2.615v2.614Zm0-5.228v-2.614h2.615v2.614Zm0,26.142v-2.614h2.615v2.614Zm0-5.228v-2.614h2.615v2.614Zm0-5.228v-2.614h2.615v2.614Zm0,26.142v-2.614h2.615v2.614Zm0-5.228v-2.614h2.615v2.614Zm0-5.228v-2.614h2.615v2.614Zm0,26.142v-2.614h2.615v2.614Zm0-5.228v-2.614h2.615v2.614Zm0-5.228v-2.614h2.615v2.614Zm0,26.142v-2.614h2.615v2.614Zm0-5.228v-2.614h2.615v2.614Zm0-5.228v-2.614h2.615v2.614Zm0,26.142v-2.614h2.615v2.614Zm0-5.228V-406.3h2.615v2.614Zm0-5.228v-2.614h2.615v2.614Zm0,26.142v-2.614h2.615v2.614Zm0-5.228v-2.614h2.615V-388Zm0-5.228v-2.614h2.615v2.614Zm0,26.142V-369.7h2.615v2.615Zm0-5.228v-2.615h2.615v2.615Zm0-5.228v-2.615h2.615v2.615Zm0,26.142v-2.614h2.615v2.614Zm0-5.228v-2.615h2.615v2.615Zm0-5.228v-2.615h2.615v2.615Zm0,26.142v-2.614h2.615v2.614Zm0-5.228v-2.615h2.615v2.615Zm0-5.228v-2.615h2.615v2.615Zm0,26.142v-2.615h2.615v2.615Zm0-5.228v-2.615h2.615v2.615Zm0-5.228V-333.1h2.615v2.615Zm0,26.142v-2.615h2.615v2.615Zm0-5.228v-2.615h2.615v2.615Zm0-5.228v-2.615h2.615v2.615Zm0,26.142v-2.615h2.615v2.615Zm0-5.228V-296.5h2.615v2.615Zm0-5.228v-2.615h2.615v2.615Zm0,26.142v-2.615h2.615v2.615Zm0-5.228v-2.615h2.615v2.615Zm0-5.228v-2.615h2.615v2.615Zm0,26.142V-259.9h2.615v2.615Zm0-5.228v-2.615h2.615v2.615Zm0-5.228v-2.615h2.615v2.615Zm-2.614-206.52v-2.615h2.614v2.615Zm0-5.228v-2.615h2.614v2.615Zm0-5.228v-2.614h2.614v2.614Zm0,26.142v-2.615h2.614v2.615Zm0-5.228v-2.614h2.614v2.614Zm0-5.228v-2.615h2.614v2.615Zm0,26.142v-2.615h2.614v2.615Zm0-5.228v-2.615h2.614v2.615Zm0-5.228v-2.615h2.614v2.615Zm0,26.142v-2.614h2.614v2.614Zm0-5.228v-2.615h2.614v2.615Zm0-5.228v-2.614h2.614v2.614Zm0,26.142v-2.615h2.614v2.615Zm0-5.228v-2.614h2.614v2.614Zm0-5.228V-424.6h2.614v2.614Zm0,26.142v-2.615h2.614v2.615Zm0-5.228v-2.615h2.614v2.615Zm0-5.228v-2.615h2.614v2.615Zm0,26.142v-2.615h2.614v2.615Zm0-5.228V-388h2.614v2.614Zm0-5.228v-2.614h2.614v2.614Zm0,26.142v-2.614h2.614v2.614Zm0-5.228v-2.614h2.614v2.614Zm0-5.228v-2.614h2.614v2.614Zm0,26.142V-351.4h2.614v2.614Zm0-5.228v-2.614h2.614v2.614Zm0-5.228v-2.614h2.614v2.614Zm0,26.142v-2.614h2.614v2.614Zm0-5.228v-2.614h2.614v2.614Zm0-5.228v-2.614h2.614v2.614Zm0,26.142v-2.614h2.614v2.614Zm0-5.228v-2.614h2.614v2.614Zm0-5.228v-2.614h2.614v2.614Zm0,26.142v-2.614h2.614v2.614Zm0-5.228v-2.614h2.614v2.614Zm0-5.228V-314.8h2.614v2.614Zm0,26.142v-2.614h2.614v2.614Zm0-5.228v-2.614h2.614v2.614Zm0-5.228v-2.614h2.614v2.614Zm0,26.142v-2.614h2.614v2.614Zm0-5.228V-278.2h2.614v2.614Zm0-5.228v-2.614h2.614v2.614Zm0,26.142v-2.614h2.614v2.614Zm0-5.228v-2.614h2.614v2.614Zm0-5.228v-2.614h2.614v2.614Zm-2.615-211.748v-2.614h2.615v2.614Zm0-5.228v-2.614h2.615v2.614Zm0-5.228v-2.614h2.615v2.614Zm0,26.142v-2.614h2.615v2.614Zm0-5.228v-2.614h2.615v2.614Zm0-5.228v-2.614h2.615v2.614Zm0,26.142v-2.614h2.615v2.614Zm0-5.228v-2.614h2.615v2.614Zm0-5.228v-2.614h2.615v2.614Zm0,26.142v-2.614h2.615v2.614Zm0-5.228v-2.614h2.615v2.614Zm0-5.228v-2.614h2.615v2.614Zm0,26.142v-2.614h2.615v2.614Zm0-5.228v-2.614h2.615v2.614Zm0-5.228v-2.614h2.615v2.614Zm0,26.142v-2.614h2.615v2.614Zm0-5.228V-406.3h2.615v2.614Zm0-5.228v-2.614h2.615v2.614Zm0,26.142v-2.614h2.615v2.614Zm0-5.228v-2.614h2.615V-388Zm0-5.228v-2.614h2.615v2.614Zm0,26.142V-369.7h2.615v2.615Zm0-5.228v-2.615h2.615v2.615Zm0-5.228v-2.615h2.615v2.615Zm0,26.142v-2.614h2.615v2.614Zm0-5.228v-2.615h2.615v2.615Zm0-5.228v-2.615h2.615v2.615Zm0,26.142v-2.614h2.615v2.614Zm0-5.228v-2.615h2.615v2.615Zm0-5.228v-2.615h2.615v2.615Zm0,26.142v-2.615h2.615v2.615Zm0-5.228v-2.615h2.615v2.615Zm0-5.228V-333.1h2.615v2.615Zm0,26.142v-2.615h2.615v2.615Zm0-5.228v-2.615h2.615v2.615Zm0-5.228v-2.615h2.615v2.615Zm0,26.142v-2.615h2.615v2.615Zm0-5.228V-296.5h2.615v2.615Zm0-5.228v-2.615h2.615v2.615Zm0,26.142v-2.615h2.615v2.615Zm0-5.228v-2.615h2.615v2.615Zm0-5.228v-2.615h2.615v2.615Zm0,26.142V-259.9h2.615v2.615Zm0-5.228v-2.615h2.615v2.615Zm0-5.228v-2.615h2.615v2.615Zm-2.614-206.52v-2.615h2.614v2.615Zm0-5.228v-2.615h2.614v2.615Zm0-5.228v-2.614h2.614v2.614Zm0,26.142v-2.615h2.614v2.615Zm0-5.228v-2.614h2.614v2.614Zm0-5.228v-2.615h2.614v2.615Zm0,26.142v-2.615h2.614v2.615Zm0-5.228v-2.615h2.614v2.615Zm0-5.228v-2.615h2.614v2.615Zm0,26.142v-2.614h2.614v2.614Zm0-5.228v-2.615h2.614v2.615Zm0-5.228v-2.614h2.614v2.614Zm0,26.142v-2.615h2.614v2.615Zm0-5.228v-2.614h2.614v2.614Zm0-5.228V-424.6h2.614v2.614Zm0,26.142v-2.615h2.614v2.615Zm0-5.228v-2.615h2.614v2.615Zm0-5.228v-2.615h2.614v2.615Zm0,26.142v-2.615h2.614v2.615Zm0-5.228V-388h2.614v2.614Zm0-5.228v-2.614h2.614v2.614Zm0,26.142v-2.614h2.614v2.614Zm0-5.228v-2.614h2.614v2.614Zm0-5.228v-2.614h2.614v2.614Zm0,26.142V-351.4h2.614v2.614Zm0-5.228v-2.614h2.614v2.614Zm0-5.228v-2.614h2.614v2.614Zm0,26.142v-2.614h2.614v2.614Zm0-5.228v-2.614h2.614v2.614Zm0-5.228v-2.614h2.614v2.614Zm0,26.142v-2.614h2.614v2.614Zm0-5.228v-2.614h2.614v2.614Zm0-5.228v-2.614h2.614v2.614Zm0,26.142v-2.614h2.614v2.614Zm0-5.228v-2.614h2.614v2.614Zm0-5.228V-314.8h2.614v2.614Zm0,26.142v-2.614h2.614v2.614Zm0-5.228v-2.614h2.614v2.614Zm0-5.228v-2.614h2.614v2.614Zm0,26.142v-2.614h2.614v2.614Zm0-5.228V-278.2h2.614v2.614Zm0-5.228v-2.614h2.614v2.614Zm0,26.142v-2.614h2.614v2.614Zm0-5.228v-2.614h2.614v2.614Zm0-5.228v-2.614h2.614v2.614Zm-2.615-211.748v-2.614h2.615v2.614Zm0-5.228v-2.614h2.615v2.614Zm0-5.228v-2.614h2.615v2.614Zm0,26.142v-2.614h2.615v2.614Zm0-5.228v-2.614h2.615v2.614Zm0-5.228v-2.614h2.615v2.614Zm0,26.142v-2.614h2.615v2.614Zm0-5.228v-2.614h2.615v2.614Zm0-5.228v-2.614h2.615v2.614Zm0,26.142v-2.614h2.615v2.614Zm0-5.228v-2.614h2.615v2.614Zm0-5.228v-2.614h2.615v2.614Zm0,26.142v-2.614h2.615v2.614Zm0-5.228v-2.614h2.615v2.614Zm0-5.228v-2.614h2.615v2.614Zm0,26.142v-2.614h2.615v2.614Zm0-5.228V-406.3h2.615v2.614Zm0-5.228v-2.614h2.615v2.614Zm0,26.142v-2.614h2.615v2.614Zm0-5.228v-2.614h2.615V-388Zm0-5.228v-2.614h2.615v2.614Zm0,26.142V-369.7h2.615v2.615Zm0-5.228v-2.615h2.615v2.615Zm0-5.228v-2.615h2.615v2.615Zm0,26.142v-2.614h2.615v2.614Zm0-5.228v-2.615h2.615v2.615Zm0-5.228v-2.615h2.615v2.615Zm0,26.142v-2.614h2.615v2.614Zm0-5.228v-2.615h2.615v2.615Zm0-5.228v-2.615h2.615v2.615Zm0,26.142v-2.615h2.615v2.615Zm0-5.228v-2.615h2.615v2.615Zm0-5.228V-333.1h2.615v2.615Zm0,26.142v-2.615h2.615v2.615Zm0-5.228v-2.615h2.615v2.615Zm0-5.228v-2.615h2.615v2.615Zm0,26.142v-2.615h2.615v2.615Zm0-5.228V-296.5h2.615v2.615Zm0-5.228v-2.615h2.615v2.615Zm0,26.142v-2.615h2.615v2.615Zm0-5.228v-2.615h2.615v2.615Zm0-5.228v-2.615h2.615v2.615Zm0,26.142V-259.9h2.615v2.615Zm0-5.228v-2.615h2.615v2.615Zm0-5.228v-2.615h2.615v2.615Z" transform="translate(343.16 489.949)" fill="#9f39fa" clip-rule="evenodd"/>
    </clipPath>
    <clipPath id="clip-path-4">
      <rect id="Retângulo_171" data-name="Retângulo 171" width="1254.805" height="705.828" fill="#9f39fa"/>
    </clipPath>
  </defs>
  <g id="Grupo_de_máscara_8" data-name="Grupo de máscara 8" transform="translate(-334 -1535)" clip-path="url(#clip-path)">
    <g id="Grupo_452" data-name="Grupo 452">
      <g id="Grupo_de_máscara_6" data-name="Grupo de máscara 6" transform="translate(-289 -495)" clip-path="url(#clip-path-2)">
        <g id="Grupo_446" data-name="Grupo 446" transform="translate(635.769 2019.556)" clip-path="url(#clip-path-3)">
          <g id="Grupo_445" data-name="Grupo 445" transform="translate(-507.804 -572.505)">
            <g id="Grupo_444" data-name="Grupo 444" clip-path="url(#clip-path-4)">
              <rect id="Retângulo_170" data-name="Retângulo 170" width="24.835" height="241.811" transform="translate(504.536 569.237)" fill="#9f39fa"/>
            </g>
          </g>
        </g>
      </g>
      <g id="Grupo_de_máscara_7" data-name="Grupo de máscara 7" transform="translate(-289 -385)" clip-path="url(#clip-path-2)">
        <g id="Grupo_451" data-name="Grupo 451" transform="translate(635.769 2019.556)" clip-path="url(#clip-path-3)">
          <g id="Grupo_450" data-name="Grupo 450" transform="translate(-507.804 -572.505)">
            <g id="Grupo_449" data-name="Grupo 449" clip-path="url(#clip-path-4)">
              <rect id="Retângulo_173" data-name="Retângulo 173" width="24.835" height="241.811" transform="translate(504.536 569.237)" fill="#9f39fa"/>
            </g>
          </g>
        </g>
      </g>
    </g>
  </g>
</svg>
