<svg xmlns="http://www.w3.org/2000/svg" xmlns:xlink="http://www.w3.org/1999/xlink" width="246.949" height="246.949" viewBox="0 0 246.949 246.949">
  <defs>
    <clipPath id="clip-path">
      <path id="Caminho_105" data-name="Caminho 105" d="M-435.257-688.923a12,12,0,0,1-4.687,9.513l-71.524,54.384a11.342,11.342,0,0,1-12.127,1.166,11.673,11.673,0,0,1-6.568-10.679v-71.118a11.8,11.8,0,0,1,11.692-11.881h71.523a11.8,11.8,0,0,1,11.692,11.881v16.734m2.063,0v-16.734A13.851,13.851,0,0,0-446.949-719.6h-71.523a13.85,13.85,0,0,0-13.755,13.945v71.118c0,11.491,12.94,18.05,22.007,11.155l71.523-54.384a14.01,14.01,0,0,0,5.5-11.156" transform="translate(532.226 719.601)" fill="#4c63f7" clip-rule="evenodd"/>
    </clipPath>
    <clipPath id="clip-path-2">
      <rect id="Retângulo_38" data-name="Retângulo 38" width="990.321" height="557.055" fill="#4c63f7"/>
    </clipPath>
    <clipPath id="clip-path-3">
      <path id="Caminho_106" data-name="Caminho 106" d="M-436.258-672.835a8.484,8.484,0,0,1-3.312,6.724l-53.643,40.788a8,8,0,0,1-8.555.823,8.247,8.247,0,0,1-4.638-7.547v-53.338a8.334,8.334,0,0,1,8.253-8.4h53.643a8.334,8.334,0,0,1,8.253,8.4v12.55m2.063,0v-12.55a10.388,10.388,0,0,0-10.316-10.458h-53.643a10.388,10.388,0,0,0-10.316,10.458v53.338a10.307,10.307,0,0,0,16.505,8.366l53.642-40.788a10.509,10.509,0,0,0,4.126-8.367" transform="translate(508.469 695.844)" fill="#4c63f7" clip-rule="evenodd"/>
    </clipPath>
    <clipPath id="clip-path-5">
      <path id="Caminho_107" data-name="Caminho 107" d="M-437.259-656.748a4.965,4.965,0,0,1-1.936,3.936l-35.762,27.192a4.66,4.66,0,0,1-4.981.48,4.825,4.825,0,0,1-2.711-4.416v-35.559a4.868,4.868,0,0,1,4.814-4.91h35.762a4.868,4.868,0,0,1,4.814,4.91v8.367m2.063,0v-8.367a6.925,6.925,0,0,0-6.877-6.972h-35.762a6.925,6.925,0,0,0-6.877,6.972v35.559a6.871,6.871,0,0,0,11,5.578l35.762-27.192a7,7,0,0,0,2.751-5.578" transform="translate(484.712 672.087)" fill="#4c63f7" clip-rule="evenodd"/>
    </clipPath>
    <clipPath id="clip-path-7">
      <path id="Caminho_103" data-name="Caminho 103" d="M-429.878-785.643a33.035,33.035,0,0,1-12.907,26.18L-621.137-623.85A31.806,31.806,0,0,1-638-617.339a32.045,32.045,0,0,1-16.616-3.294,32.616,32.616,0,0,1-12.939-11.525,32.873,32.873,0,0,1-5.153-17.872V-827.37c0-18.039,14.463-32.714,32.241-32.714h178.352c17.778,0,32.24,14.676,32.24,32.714v41.727m2.058,0V-827.37a34.538,34.538,0,0,0-34.3-34.773H-640.47a34.538,34.538,0,0,0-34.3,34.773v177.34c0,28.655,32.267,45.011,54.878,27.818l178.352-135.614a34.937,34.937,0,0,0,13.719-27.818" transform="translate(674.769 862.143)" fill="#4c63f7" clip-rule="evenodd"/>
    </clipPath>
    <clipPath id="clip-path-8">
      <rect id="Retângulo_34" data-name="Retângulo 34" width="987.795" height="555.636" fill="#4c63f7"/>
    </clipPath>
    <clipPath id="clip-path-9">
      <path id="Caminho_104" data-name="Caminho 104" d="M-434.256-705.01a15.524,15.524,0,0,1-6.063,12.3l-89.4,67.979a14.682,14.682,0,0,1-15.7,1.509,15.1,15.1,0,0,1-8.5-13.811v-88.9a15.267,15.267,0,0,1,15.13-15.367h89.4a15.267,15.267,0,0,1,15.13,15.367v20.917m2.063,0v-20.917a17.313,17.313,0,0,0-17.193-17.431h-89.4a17.313,17.313,0,0,0-17.193,17.431v88.9c0,14.364,16.174,22.563,27.509,13.945l89.4-67.98a17.515,17.515,0,0,0,6.877-13.945" transform="translate(555.983 743.358)" fill="#4c63f7" clip-rule="evenodd"/>
    </clipPath>
    <clipPath id="clip-path-11">
      <path id="Caminho_108" data-name="Caminho 108" d="M-433.255-721.1a19.039,19.039,0,0,1-7.438,15.091l-107.285,81.576a18.026,18.026,0,0,1-19.274,1.852,18.758,18.758,0,0,1-10.424-16.943V-746.2a18.734,18.734,0,0,1,18.569-18.854h107.285A18.734,18.734,0,0,1-433.255-746.2v25.1m2.063,0v-25.1a20.776,20.776,0,0,0-20.632-20.917H-559.108A20.775,20.775,0,0,0-579.74-746.2v106.677c0,17.236,19.41,27.075,33.011,16.733l107.285-81.576a21.016,21.016,0,0,0,8.253-16.733" transform="translate(579.74 767.115)" fill="#4c63f7" clip-rule="evenodd"/>
    </clipPath>
    <clipPath id="clip-path-13">
      <path id="Caminho_109" data-name="Caminho 109" d="M-432.254-737.185a22.56,22.56,0,0,1-8.814,17.88l-125.166,95.172a21.367,21.367,0,0,1-22.847,2.2,22.225,22.225,0,0,1-12.353-20.076V-766.469a22.2,22.2,0,0,1,22.007-22.34h125.165a22.2,22.2,0,0,1,22.007,22.34v29.283m2.063,0v-29.283a24.239,24.239,0,0,0-24.071-24.4H-579.427a24.238,24.238,0,0,0-24.07,24.4v124.455c0,20.109,22.644,31.588,38.513,19.523l125.165-95.172a24.52,24.52,0,0,0,9.628-19.523" transform="translate(603.497 790.872)" fill="#4c63f7" clip-rule="evenodd"/>
    </clipPath>
    <clipPath id="clip-path-15">
      <path id="Caminho_110" data-name="Caminho 110" d="M-431.878-753.469a26,26,0,0,1-10.156,20.6L-584.625-624.444a24.631,24.631,0,0,1-26.336,2.53,25.662,25.662,0,0,1-10.182-9.068,25.877,25.877,0,0,1-4.053-14.064V-786.829a25.585,25.585,0,0,1,25.365-25.744h142.59a25.585,25.585,0,0,1,25.365,25.744v33.36m2.057,0v-33.36a27.613,27.613,0,0,0-27.421-27.8h-142.59a27.613,27.613,0,0,0-27.421,27.8v141.783c0,22.909,25.8,35.985,43.874,22.24l142.591-108.422a27.931,27.931,0,0,0,10.968-22.24" transform="translate(627.254 814.63)" fill="#4c63f7" clip-rule="evenodd"/>
    </clipPath>
    <clipPath id="clip-path-16">
      <rect id="Retângulo_48" data-name="Retângulo 48" width="987.164" height="555.281" fill="#4c63f7"/>
    </clipPath>
    <clipPath id="clip-path-17">
      <path id="Caminho_111" data-name="Caminho 111" d="M-430.878-769.556a29.516,29.516,0,0,1-11.532,23.392L-602.881-624.147a27.973,27.973,0,0,1-29.909,2.874,29.153,29.153,0,0,1-11.561-10.3,29.377,29.377,0,0,1-4.6-15.968V-807.1a29.05,29.05,0,0,1,28.8-29.229H-459.68a29.051,29.051,0,0,1,28.8,29.229v37.544m2.057,0V-807.1a31.075,31.075,0,0,0-30.86-31.286H-620.151A31.075,31.075,0,0,0-651.011-807.1v159.562c0,25.781,29.031,40.5,49.375,25.029l160.471-122.017a31.437,31.437,0,0,0,12.344-25.03" transform="translate(651.011 838.386)" fill="#4c63f7" clip-rule="evenodd"/>
    </clipPath>
    <clipPath id="clip-path-18">
      <rect id="Retângulo_50" data-name="Retângulo 50" width="987.515" height="555.478" fill="#4c63f7"/>
    </clipPath>
  </defs>
  <g id="Grupo_344" data-name="Grupo 344" transform="translate(-2269.746 -1356)" opacity="0.05">
    <g id="Grupo_153" data-name="Grupo 153" transform="translate(2343.705 1429.958)">
      <g id="Grupo_152" data-name="Grupo 152" clip-path="url(#clip-path)">
        <g id="Grupo_151" data-name="Grupo 151" transform="translate(-302.254 -332.17)">
          <g id="Grupo_150" data-name="Grupo 150" clip-path="url(#clip-path-2)">
            <rect id="Retângulo_37" data-name="Retângulo 37" width="104.19" height="104.19" transform="translate(299.675 329.591)" fill="#4c63f7"/>
          </g>
        </g>
      </g>
    </g>
    <g id="Grupo_157" data-name="Grupo 157" transform="translate(2356.083 1442.337)">
      <g id="Grupo_156" data-name="Grupo 156" clip-path="url(#clip-path-3)">
        <g id="Grupo_155" data-name="Grupo 155" transform="translate(-314.633 -344.549)">
          <g id="Grupo_154" data-name="Grupo 154" clip-path="url(#clip-path-2)">
            <rect id="Retângulo_39" data-name="Retângulo 39" width="79.432" height="79.432" transform="translate(312.054 341.97)" fill="#4c63f7"/>
          </g>
        </g>
      </g>
    </g>
    <g id="Grupo_161" data-name="Grupo 161" transform="translate(2368.462 1454.716)">
      <g id="Grupo_160" data-name="Grupo 160" clip-path="url(#clip-path-5)">
        <g id="Grupo_159" data-name="Grupo 159" transform="translate(-327.012 -356.928)">
          <g id="Grupo_158" data-name="Grupo 158" clip-path="url(#clip-path-2)">
            <rect id="Retângulo_41" data-name="Retângulo 41" width="54.674" height="54.674" transform="translate(324.433 354.349)" fill="#4c63f7"/>
          </g>
        </g>
      </g>
    </g>
    <g id="Grupo_343" data-name="Grupo 343" transform="translate(2269.746 1356)">
      <g id="Grupo_145" data-name="Grupo 145" transform="translate(0 0)">
        <g id="Grupo_144" data-name="Grupo 144" clip-path="url(#clip-path-7)">
          <g id="Grupo_143" data-name="Grupo 143" transform="translate(-227.398 -257.239)">
            <g id="Grupo_142" data-name="Grupo 142" clip-path="url(#clip-path-8)">
              <rect id="Retângulo_33" data-name="Retângulo 33" width="252.094" height="252.094" transform="translate(224.826 254.667)" fill="#4c63f7"/>
            </g>
          </g>
        </g>
      </g>
      <g id="Grupo_149" data-name="Grupo 149" transform="translate(61.58 61.579)">
        <g id="Grupo_148" data-name="Grupo 148" clip-path="url(#clip-path-9)">
          <g id="Grupo_147" data-name="Grupo 147" transform="translate(-289.875 -319.791)">
            <g id="Grupo_146" data-name="Grupo 146" clip-path="url(#clip-path-2)">
              <rect id="Retângulo_35" data-name="Retângulo 35" width="128.948" height="128.948" transform="translate(287.296 317.212)" fill="#4c63f7"/>
            </g>
          </g>
        </g>
      </g>
      <g id="Grupo_165" data-name="Grupo 165" transform="translate(49.201 49.2)">
        <g id="Grupo_164" data-name="Grupo 164" clip-path="url(#clip-path-11)">
          <g id="Grupo_163" data-name="Grupo 163" transform="translate(-277.496 -307.412)">
            <g id="Grupo_162" data-name="Grupo 162" clip-path="url(#clip-path-2)">
              <rect id="Retângulo_43" data-name="Retângulo 43" width="153.706" height="153.706" transform="translate(274.917 304.833)" fill="#4c63f7"/>
            </g>
          </g>
        </g>
      </g>
      <g id="Grupo_169" data-name="Grupo 169" transform="translate(36.506 37.137)">
        <g id="Grupo_168" data-name="Grupo 168" clip-path="url(#clip-path-13)">
          <g id="Grupo_167" data-name="Grupo 167" transform="translate(-265.117 -295.033)">
            <g id="Grupo_166" data-name="Grupo 166" clip-path="url(#clip-path-2)">
              <rect id="Retângulo_45" data-name="Retângulo 45" width="178.464" height="178.464" transform="translate(262.538 292.454)" fill="#4c63f7"/>
            </g>
          </g>
        </g>
      </g>
      <g id="Grupo_173" data-name="Grupo 173" transform="translate(24.758 24.757)">
        <g id="Grupo_172" data-name="Grupo 172" clip-path="url(#clip-path-15)">
          <g id="Grupo_171" data-name="Grupo 171" transform="translate(-251.933 -281.753)">
            <g id="Grupo_170" data-name="Grupo 170" clip-path="url(#clip-path-16)">
              <rect id="Retângulo_47" data-name="Retângulo 47" width="202.574" height="202.575" transform="translate(249.362 279.183)" fill="#4c63f7"/>
            </g>
          </g>
        </g>
      </g>
      <g id="Grupo_177" data-name="Grupo 177" transform="translate(12.38 12.379)">
        <g id="Grupo_176" data-name="Grupo 176" clip-path="url(#clip-path-17)">
          <g id="Grupo_175" data-name="Grupo 175" transform="translate(-239.678 -269.51)">
            <g id="Grupo_174" data-name="Grupo 174" clip-path="url(#clip-path-18)">
              <rect id="Retângulo_49" data-name="Retângulo 49" width="227.334" height="227.334" transform="translate(237.106 266.938)" fill="#4c63f7"/>
            </g>
          </g>
        </g>
      </g>
    </g>
  </g>
</svg>
