<svg xmlns="http://www.w3.org/2000/svg" xmlns:xlink="http://www.w3.org/1999/xlink" width="439.385" height="34.175" viewBox="0 0 439.385 34.175">
  <defs>
    <clipPath id="clip-path">
      <path id="Caminho_119" data-name="Caminho 119" d="M265.279-650.376H260.4v-4.883h4.883Zm-9.764,0h-4.883v-4.883h4.883Zm-9.764,0h-4.883v-4.883h4.883Zm48.82,0h-4.883v-4.883h4.883Zm-9.764,0h-4.883v-4.883h4.883Zm-9.764,0H270.16v-4.883h4.883Zm48.82,0h-4.883v-4.883h4.883Zm-9.764,0h-4.883v-4.883H314.1Zm-9.764,0h-4.883v-4.883h4.883Zm48.82,0h-4.883v-4.883h4.883Zm-9.764,0h-4.883v-4.883h4.883Zm-9.764,0h-4.883v-4.883h4.883Zm48.82,0h-4.883v-4.883h4.883Zm-9.764,0H367.8v-4.883h4.883Zm-9.764,0h-4.883v-4.883h4.883Zm48.82,0h-4.883v-4.883h4.883Zm-9.764,0h-4.883v-4.883h4.883Zm-9.764,0h-4.883v-4.883h4.883Zm48.82,0h-4.883v-4.883h4.883Zm-9.764,0h-4.883v-4.883h4.883Zm-9.764,0h-4.883v-4.883H421.5Zm48.82,0h-4.883v-4.883h4.883Zm-9.764,0h-4.883v-4.883h4.883Zm-9.764,0h-4.883v-4.883H450.8Zm48.82,0h-4.881v-4.883h4.881Zm-9.764,0h-4.881v-4.883h4.881Zm-9.764,0h-4.881v-4.883h4.881Zm48.82,0h-4.881v-4.883h4.881Zm-9.764,0h-4.881v-4.883h4.881Zm-9.764,0H504.5v-4.883h4.881Zm48.82,0H553.32v-4.883H558.2Zm-9.764,0h-4.881v-4.883h4.881Zm-9.764,0h-4.881v-4.883h4.881Zm48.82,0h-4.881v-4.883h4.881Zm-9.764,0h-4.881v-4.883h4.881Zm-9.764,0h-4.881v-4.883h4.881Zm48.82,0H611.9v-4.883h4.881Zm-9.764,0H602.14v-4.883h4.881Zm-9.764,0h-4.881v-4.883h4.881Zm48.82,0H641.2v-4.883h4.881Zm-9.764,0h-4.881v-4.883h4.881Zm-9.764,0h-4.881v-4.883h4.881Zm48.82,0h-4.881v-4.883h4.881Zm-9.764,0h-4.881v-4.883h4.881Zm-9.764,0H650.96v-4.883h4.881ZM270.16-645.495h-4.881v-4.881h4.881Zm-9.764,0h-4.881v-4.881H260.4Zm-9.764,0h-4.881v-4.881h4.881Zm48.82,0h-4.881v-4.881h4.881Zm-9.764,0h-4.881v-4.881h4.881Zm-9.764,0h-4.881v-4.881h4.881Zm48.82,0h-4.881v-4.881h4.881Zm-9.764,0H314.1v-4.881h4.881Zm-9.764,0h-4.881v-4.881h4.881Zm48.82,0h-4.881v-4.881h4.881Zm-9.764,0h-4.881v-4.881h4.881Zm-9.764,0h-4.881v-4.881h4.881Zm48.82,0h-4.881v-4.881h4.881Zm-9.764,0h-4.881v-4.881h4.881Zm-9.764,0H362.92v-4.881H367.8Zm48.82,0H411.74v-4.881h4.881Zm-9.764,0h-4.881v-4.881h4.881Zm-9.764,0h-4.881v-4.881h4.881Zm48.82,0h-4.881v-4.881h4.881Zm-9.764,0h-4.881v-4.881h4.881Zm-9.764,0H421.5v-4.881h4.881Zm48.822,0h-4.883v-4.881h4.883Zm-9.765,0H460.56v-4.881h4.881Zm-9.764,0H450.8v-4.881h4.881Zm48.822,0h-4.883v-4.881H504.5Zm-9.764,0h-4.883v-4.881h4.883Zm-9.764,0h-4.883v-4.881h4.883Zm48.82,0h-4.883v-4.881h4.883Zm-9.764,0h-4.883v-4.881h4.883Zm-9.764,0h-4.883v-4.881h4.883Zm48.82,0H558.2v-4.881h4.883Zm-9.764,0h-4.883v-4.881h4.883Zm-9.764,0h-4.883v-4.881h4.883Zm48.82,0h-4.883v-4.881h4.883Zm-9.764,0h-4.883v-4.881h4.883Zm-9.764,0h-4.883v-4.881h4.883Zm48.82,0h-4.883v-4.881h4.883Zm-9.764,0h-4.883v-4.881H611.9Zm-9.764,0h-4.883v-4.881h4.883Zm48.82,0h-4.883v-4.881h4.883Zm-9.764,0h-4.883v-4.881H641.2Zm-9.764,0H626.55v-4.881h4.883Zm48.82,0H675.37v-4.881h4.883Zm-9.764,0h-4.883v-4.881h4.883Zm-9.764,0h-4.883v-4.881h4.883Zm-395.446,4.883H260.4v-4.883h4.883Zm-9.764,0h-4.883v-4.883h4.883Zm-9.764,0h-4.883v-4.883h4.883Zm48.82,0h-4.883v-4.883h4.883Zm-9.764,0h-4.883v-4.883h4.883Zm-9.764,0H270.16v-4.883h4.883Zm48.82,0h-4.883v-4.883h4.883Zm-9.764,0h-4.883v-4.883H314.1Zm-9.764,0h-4.883v-4.883h4.883Zm48.82,0h-4.883v-4.883h4.883Zm-9.764,0h-4.883v-4.883h4.883Zm-9.764,0h-4.883v-4.883h4.883Zm48.82,0h-4.883v-4.883h4.883Zm-9.764,0H367.8v-4.883h4.883Zm-9.764,0h-4.883v-4.883h4.883Zm48.82,0h-4.883v-4.883h4.883Zm-9.764,0h-4.883v-4.883h4.883Zm-9.764,0h-4.883v-4.883h4.883Zm48.82,0h-4.883v-4.883h4.883Zm-9.764,0h-4.883v-4.883h4.883Zm-9.764,0h-4.883v-4.883H421.5Zm48.82,0h-4.883v-4.883h4.883Zm-9.764,0h-4.883v-4.883h4.883Zm-9.764,0h-4.883v-4.883H450.8Zm48.82,0h-4.881v-4.883h4.881Zm-9.764,0h-4.881v-4.883h4.881Zm-9.764,0h-4.881v-4.883h4.881Zm48.82,0h-4.881v-4.883h4.881Zm-9.764,0h-4.881v-4.883h4.881Zm-9.764,0H504.5v-4.883h4.881Zm48.82,0H553.32v-4.883H558.2Zm-9.764,0h-4.881v-4.883h4.881Zm-9.764,0h-4.881v-4.883h4.881Zm48.82,0h-4.881v-4.883h4.881Zm-9.764,0h-4.881v-4.883h4.881Zm-9.764,0h-4.881v-4.883h4.881Zm48.82,0H611.9v-4.883h4.881Zm-9.764,0H602.14v-4.883h4.881Zm-9.764,0h-4.881v-4.883h4.881Zm48.82,0H641.2v-4.883h4.881Zm-9.764,0h-4.881v-4.883h4.881Zm-9.764,0h-4.881v-4.883h4.881Zm48.82,0h-4.881v-4.883h4.881Zm-9.764,0h-4.881v-4.883h4.881Zm-9.764,0H650.96v-4.883h4.881ZM270.16-635.731h-4.881v-4.881h4.881Zm-9.764,0h-4.881v-4.881H260.4Zm-9.764,0h-4.881v-4.881h4.881Zm48.82,0h-4.881v-4.881h4.881Zm-9.764,0h-4.881v-4.881h4.881Zm-9.764,0h-4.881v-4.881h4.881Zm48.82,0h-4.881v-4.881h4.881Zm-9.764,0H314.1v-4.881h4.881Zm-9.764,0h-4.881v-4.881h4.881Zm48.82,0h-4.881v-4.881h4.881Zm-9.764,0h-4.881v-4.881h4.881Zm-9.764,0h-4.881v-4.881h4.881Zm48.82,0h-4.881v-4.881h4.881Zm-9.764,0h-4.881v-4.881h4.881Zm-9.764,0H362.92v-4.881H367.8Zm48.82,0H411.74v-4.881h4.881Zm-9.764,0h-4.881v-4.881h4.881Zm-9.764,0h-4.881v-4.881h4.881Zm48.82,0h-4.881v-4.881h4.881Zm-9.764,0h-4.881v-4.881h4.881Zm-9.764,0H421.5v-4.881h4.881Zm48.822,0h-4.883v-4.881h4.883Zm-9.765,0H460.56v-4.881h4.881Zm-9.764,0H450.8v-4.881h4.881Zm48.822,0h-4.883v-4.881H504.5Zm-9.764,0h-4.883v-4.881h4.883Zm-9.764,0h-4.883v-4.881h4.883Zm48.82,0h-4.883v-4.881h4.883Zm-9.764,0h-4.883v-4.881h4.883Zm-9.764,0h-4.883v-4.881h4.883Zm48.82,0H558.2v-4.881h4.883Zm-9.764,0h-4.883v-4.881h4.883Zm-9.764,0h-4.883v-4.881h4.883Zm48.82,0h-4.883v-4.881h4.883Zm-9.764,0h-4.883v-4.881h4.883Zm-9.764,0h-4.883v-4.881h4.883Zm48.82,0h-4.883v-4.881h4.883Zm-9.764,0h-4.883v-4.881H611.9Zm-9.764,0h-4.883v-4.881h4.883Zm48.82,0h-4.883v-4.881h4.883Zm-9.764,0h-4.883v-4.881H641.2Zm-9.764,0H626.55v-4.881h4.883Zm48.82,0H675.37v-4.881h4.883Zm-9.764,0h-4.883v-4.881h4.883Zm-9.764,0h-4.883v-4.881h4.883Zm-395.446,4.883H260.4v-4.883h4.883Zm-9.764,0h-4.883v-4.883h4.883Zm-9.764,0h-4.883v-4.883h4.883Zm48.82,0h-4.883v-4.883h4.883Zm-9.764,0h-4.883v-4.883h4.883Zm-9.764,0H270.16v-4.883h4.883Zm48.82,0h-4.883v-4.883h4.883Zm-9.764,0h-4.883v-4.883H314.1Zm-9.764,0h-4.883v-4.883h4.883Zm48.82,0h-4.883v-4.883h4.883Zm-9.764,0h-4.883v-4.883h4.883Zm-9.764,0h-4.883v-4.883h4.883Zm48.82,0h-4.883v-4.883h4.883Zm-9.764,0H367.8v-4.883h4.883Zm-9.764,0h-4.883v-4.883h4.883Zm48.82,0h-4.883v-4.883h4.883Zm-9.764,0h-4.883v-4.883h4.883Zm-9.764,0h-4.883v-4.883h4.883Zm48.82,0h-4.883v-4.883h4.883Zm-9.764,0h-4.883v-4.883h4.883Zm-9.764,0h-4.883v-4.883H421.5Zm48.82,0h-4.883v-4.883h4.883Zm-9.764,0h-4.883v-4.883h4.883Zm-9.764,0h-4.883v-4.883H450.8Zm48.82,0h-4.881v-4.883h4.881Zm-9.764,0h-4.881v-4.883h4.881Zm-9.764,0h-4.881v-4.883h4.881Zm48.82,0h-4.881v-4.883h4.881Zm-9.764,0h-4.881v-4.883h4.881Zm-9.764,0H504.5v-4.883h4.881Zm48.82,0H553.32v-4.883H558.2Zm-9.764,0h-4.881v-4.883h4.881Zm-9.764,0h-4.881v-4.883h4.881Zm48.82,0h-4.881v-4.883h4.881Zm-9.764,0h-4.881v-4.883h4.881Zm-9.764,0h-4.881v-4.883h4.881Zm48.82,0H611.9v-4.883h4.881Zm-9.764,0H602.14v-4.883h4.881Zm-9.764,0h-4.881v-4.883h4.881Zm48.82,0H641.2v-4.883h4.881Zm-9.764,0h-4.881v-4.883h4.881Zm-9.764,0h-4.881v-4.883h4.881Zm48.82,0h-4.881v-4.883h4.881Zm-9.764,0h-4.881v-4.883h4.881Zm-9.764,0H650.96v-4.883h4.881ZM270.16-625.967h-4.881v-4.881h4.881Zm-9.764,0h-4.881v-4.881H260.4Zm-9.764,0h-4.881v-4.881h4.881Zm48.82,0h-4.881v-4.881h4.881Zm-9.764,0h-4.881v-4.881h4.881Zm-9.764,0h-4.881v-4.881h4.881Zm48.82,0h-4.881v-4.881h4.881Zm-9.764,0H314.1v-4.881h4.881Zm-9.764,0h-4.881v-4.881h4.881Zm48.82,0h-4.881v-4.881h4.881Zm-9.764,0h-4.881v-4.881h4.881Zm-9.764,0h-4.881v-4.881h4.881Zm48.82,0h-4.881v-4.881h4.881Zm-9.764,0h-4.881v-4.881h4.881Zm-9.764,0H362.92v-4.881H367.8Zm48.82,0H411.74v-4.881h4.881Zm-9.764,0h-4.881v-4.881h4.881Zm-9.764,0h-4.881v-4.881h4.881Zm48.82,0h-4.881v-4.881h4.881Zm-9.764,0h-4.881v-4.881h4.881Zm-9.764,0H421.5v-4.881h4.881Zm48.822,0h-4.883v-4.881h4.883Zm-9.765,0H460.56v-4.881h4.881Zm-9.764,0H450.8v-4.881h4.881Zm48.822,0h-4.883v-4.881H504.5Zm-9.764,0h-4.883v-4.881h4.883Zm-9.764,0h-4.883v-4.881h4.883Zm48.82,0h-4.883v-4.881h4.883Zm-9.764,0h-4.883v-4.881h4.883Zm-9.764,0h-4.883v-4.881h4.883Zm48.82,0H558.2v-4.881h4.883Zm-9.764,0h-4.883v-4.881h4.883Zm-9.764,0h-4.883v-4.881h4.883Zm48.82,0h-4.883v-4.881h4.883Zm-9.764,0h-4.883v-4.881h4.883Zm-9.764,0h-4.883v-4.881h4.883Zm48.82,0h-4.883v-4.881h4.883Zm-9.764,0h-4.883v-4.881H611.9Zm-9.764,0h-4.883v-4.881h4.883Zm48.82,0h-4.883v-4.881h4.883Zm-9.764,0h-4.883v-4.881H641.2Zm-9.764,0H626.55v-4.881h4.883Zm48.82,0H675.37v-4.881h4.883Zm-9.764,0h-4.883v-4.881h4.883Zm-9.764,0h-4.883v-4.881h4.883Zm-395.446,4.883H260.4v-4.883h4.883Zm-9.764,0h-4.883v-4.883h4.883Zm-9.764,0h-4.883v-4.883h4.883Zm48.82,0h-4.883v-4.883h4.883Zm-9.764,0h-4.883v-4.883h4.883Zm-9.764,0H270.16v-4.883h4.883Zm48.82,0h-4.883v-4.883h4.883Zm-9.764,0h-4.883v-4.883H314.1Zm-9.764,0h-4.883v-4.883h4.883Zm48.82,0h-4.883v-4.883h4.883Zm-9.764,0h-4.883v-4.883h4.883Zm-9.764,0h-4.883v-4.883h4.883Zm48.82,0h-4.883v-4.883h4.883Zm-9.764,0H367.8v-4.883h4.883Zm-9.764,0h-4.883v-4.883h4.883Zm48.82,0h-4.883v-4.883h4.883Zm-9.764,0h-4.883v-4.883h4.883Zm-9.764,0h-4.883v-4.883h4.883Zm48.82,0h-4.883v-4.883h4.883Zm-9.764,0h-4.883v-4.883h4.883Zm-9.764,0h-4.883v-4.883H421.5Zm48.82,0h-4.883v-4.883h4.883Zm-9.764,0h-4.883v-4.883h4.883Zm-9.764,0h-4.883v-4.883H450.8Zm48.82,0h-4.881v-4.883h4.881Zm-9.764,0h-4.881v-4.883h4.881Zm-9.764,0h-4.881v-4.883h4.881Zm48.82,0h-4.881v-4.883h4.881Zm-9.764,0h-4.881v-4.883h4.881Zm-9.764,0H504.5v-4.883h4.881Zm48.82,0H553.32v-4.883H558.2Zm-9.764,0h-4.881v-4.883h4.881Zm-9.764,0h-4.881v-4.883h4.881Zm48.82,0h-4.881v-4.883h4.881Zm-9.764,0h-4.881v-4.883h4.881Zm-9.764,0h-4.881v-4.883h4.881Zm48.82,0H611.9v-4.883h4.881Zm-9.764,0H602.14v-4.883h4.881Zm-9.764,0h-4.881v-4.883h4.881Zm48.82,0H641.2v-4.883h4.881Zm-9.764,0h-4.881v-4.883h4.881Zm-9.764,0h-4.881v-4.883h4.881Zm48.82,0h-4.881v-4.883h4.881Zm-9.764,0h-4.881v-4.883h4.881Zm-9.764,0H650.96v-4.883h4.881Z" transform="translate(-240.868 655.259)" fill="#3bb6bd" clip-rule="evenodd"/>
    </clipPath>
    <clipPath id="clip-path-2">
      <rect id="Ret창ngulo_66" data-name="Ret창ngulo 66" width="2343.384" height="1318.153" fill="#3bb6bd"/>
    </clipPath>
  </defs>
  <g id="Grupo_208" data-name="Grupo 208" clip-path="url(#clip-path)">
    <g id="Grupo_207" data-name="Grupo 207" transform="translate(-1668.44 -865.343)">
      <g id="Grupo_206" data-name="Grupo 206" clip-path="url(#clip-path-2)">
        <rect id="Ret창ngulo_65" data-name="Ret창ngulo 65" width="451.59" height="46.379" transform="translate(1662.338 859.241)" fill="#3bb6bd"/>
      </g>
    </g>
  </g>
</svg>
