<svg id="network" xmlns="http://www.w3.org/2000/svg" width="28.383" height="28.383" viewBox="0 0 28.383 28.383">
  <g id="Grupo_364" data-name="Grupo 364" transform="translate(24.598 5.677)">
    <g id="Grupo_363" data-name="Grupo 363">
      <path id="Caminho_278" data-name="Caminho 278" d="M445.626,102.4a1.892,1.892,0,1,0,1.892,1.892A1.894,1.894,0,0,0,445.626,102.4Zm0,2.838a.946.946,0,1,1,.946-.946A.947.947,0,0,1,445.626,105.238Z" transform="translate(-443.734 -102.4)" fill="#824bef"/>
    </g>
  </g>
  <g id="Grupo_366" data-name="Grupo 366" transform="translate(0 21.287)">
    <g id="Grupo_365" data-name="Grupo 365">
      <path id="Caminho_279" data-name="Caminho 279" d="M1.892,384a1.892,1.892,0,1,0,1.892,1.892A1.894,1.894,0,0,0,1.892,384Zm0,2.838a.946.946,0,1,1,.946-.946A.947.947,0,0,1,1.892,386.838Z" transform="translate(0 -384)" fill="#824bef"/>
    </g>
  </g>
  <g id="Grupo_368" data-name="Grupo 368" transform="translate(20.814 4.257)">
    <g id="Grupo_367" data-name="Grupo 367">
      <path id="Caminho_280" data-name="Caminho 280" d="M380.222,78.809l-4.081-1.97a.473.473,0,0,0-.411.852l4.081,1.97a.473.473,0,0,0,.411-.852Z" transform="translate(-375.463 -76.792)" fill="#824bef"/>
    </g>
  </g>
  <g id="Grupo_370" data-name="Grupo 370" transform="translate(19.395 24.598)">
    <g id="Grupo_369" data-name="Grupo 369">
      <path id="Caminho_281" data-name="Caminho 281" d="M351.759,443.733a1.892,1.892,0,1,0,1.892,1.892A1.894,1.894,0,0,0,351.759,443.733Zm0,2.838a.946.946,0,1,1,.946-.946A.947.947,0,0,1,351.759,446.571Z" transform="translate(-349.867 -443.733)" fill="#824bef"/>
    </g>
  </g>
  <g id="Grupo_372" data-name="Grupo 372" transform="translate(15.61 23.179)">
    <g id="Grupo_371" data-name="Grupo 371">
      <path id="Caminho_282" data-name="Caminho 282" d="M286.355,420.142l-4.081-1.97a.473.473,0,1,0-.411.852l4.081,1.97a.473.473,0,0,0,.411-.852Z" transform="translate(-281.596 -418.124)" fill="#824bef"/>
    </g>
  </g>
  <g id="Grupo_374" data-name="Grupo 374" transform="translate(12.299 12.772)">
    <g id="Grupo_373" data-name="Grupo 373">
      <path id="Caminho_283" data-name="Caminho 283" d="M223.759,230.4a1.892,1.892,0,1,0,1.892,1.892A1.894,1.894,0,0,0,223.759,230.4Zm0,2.838a.946.946,0,1,1,.946-.946A.947.947,0,0,1,223.759,233.238Z" transform="translate(-221.867 -230.4)" fill="#824bef"/>
    </g>
  </g>
  <g id="Grupo_376" data-name="Grupo 376" transform="translate(9.461 10.88)">
    <g id="Grupo_375" data-name="Grupo 375">
      <path id="Caminho_284" data-name="Caminho 284" d="M174.563,198.815l-3.135-2.443a.473.473,0,1,0-.582.747l3.135,2.443a.473.473,0,1,0,.582-.747Z" transform="translate(-170.664 -196.272)" fill="#824bef"/>
    </g>
  </g>
  <g id="Grupo_378" data-name="Grupo 378" transform="translate(17.503 12.299)">
    <g id="Grupo_377" data-name="Grupo 377">
      <path id="Caminho_285" data-name="Caminho 285" d="M320.937,221.867a5.2,5.2,0,1,0,5.2,5.2A5.21,5.21,0,0,0,320.937,221.867Zm0,9.461a4.257,4.257,0,1,1,4.257-4.257A4.262,4.262,0,0,1,320.937,231.328Z" transform="translate(-315.733 -221.867)" fill="#824bef"/>
    </g>
  </g>
  <g id="Grupo_380" data-name="Grupo 380" transform="translate(20.814 14.191)">
    <g id="Grupo_379" data-name="Grupo 379">
      <path id="Caminho_286" data-name="Caminho 286" d="M377.359,256a1.892,1.892,0,1,0,1.892,1.892A1.894,1.894,0,0,0,377.359,256Zm0,2.838a.946.946,0,1,1,.946-.946A.947.947,0,0,1,377.359,258.838Z" transform="translate(-375.467 -256)" fill="#824bef"/>
    </g>
  </g>
  <g id="Grupo_382" data-name="Grupo 382" transform="translate(19.868 18.922)">
    <g id="Grupo_381" data-name="Grupo 381">
      <path id="Caminho_287" data-name="Caminho 287" d="M362.611,341.333h-2.745a1.448,1.448,0,0,0-1.466,1.426v1.247a.473.473,0,0,0,.236.41,5.177,5.177,0,0,0,5.2,0,.473.473,0,0,0,.236-.409V342.76A1.448,1.448,0,0,0,362.611,341.333Zm.52,2.391a4.289,4.289,0,0,1-3.784,0v-.965a.5.5,0,0,1,.52-.481h2.745a.5.5,0,0,1,.52.481v.965Z" transform="translate(-358.4 -341.333)" fill="#824bef"/>
    </g>
  </g>
  <g id="Grupo_384" data-name="Grupo 384" transform="translate(6.15 17.976)">
    <g id="Grupo_383" data-name="Grupo 383">
      <path id="Caminho_288" data-name="Caminho 288" d="M116.137,324.267a5.2,5.2,0,1,0,5.2,5.2A5.21,5.21,0,0,0,116.137,324.267Zm0,9.461a4.257,4.257,0,1,1,4.257-4.257A4.262,4.262,0,0,1,116.137,333.728Z" transform="translate(-110.933 -324.267)" fill="#824bef"/>
    </g>
  </g>
  <g id="Grupo_386" data-name="Grupo 386" transform="translate(9.461 19.868)">
    <g id="Grupo_385" data-name="Grupo 385">
      <path id="Caminho_289" data-name="Caminho 289" d="M172.559,358.4a1.892,1.892,0,1,0,1.892,1.892A1.894,1.894,0,0,0,172.559,358.4Zm0,2.838a.946.946,0,1,1,.946-.946A.947.947,0,0,1,172.559,361.238Z" transform="translate(-170.667 -358.4)" fill="#824bef"/>
    </g>
  </g>
  <g id="Grupo_388" data-name="Grupo 388" transform="translate(8.515 24.598)">
    <g id="Grupo_387" data-name="Grupo 387">
      <path id="Caminho_290" data-name="Caminho 290" d="M157.811,443.733h-2.745a1.448,1.448,0,0,0-1.466,1.426v1.247a.473.473,0,0,0,.236.41,5.177,5.177,0,0,0,5.2,0,.472.472,0,0,0,.236-.409V445.16A1.448,1.448,0,0,0,157.811,443.733Zm.52,2.391a4.289,4.289,0,0,1-3.784,0v-.965a.5.5,0,0,1,.52-.481h2.745a.5.5,0,0,1,.52.481v.965Z" transform="translate(-153.6 -443.733)" fill="#824bef"/>
    </g>
  </g>
  <g id="Grupo_390" data-name="Grupo 390" transform="translate(0 6.15)">
    <g id="Grupo_389" data-name="Grupo 389">
      <path id="Caminho_291" data-name="Caminho 291" d="M5.2,110.933a5.2,5.2,0,1,0,5.2,5.2A5.21,5.21,0,0,0,5.2,110.933Zm0,9.461a4.257,4.257,0,1,1,4.257-4.257A4.262,4.262,0,0,1,5.2,120.394Z" transform="translate(0 -110.933)" fill="#824bef"/>
    </g>
  </g>
  <g id="Grupo_392" data-name="Grupo 392" transform="translate(3.311 8.042)">
    <g id="Grupo_391" data-name="Grupo 391">
      <path id="Caminho_292" data-name="Caminho 292" d="M61.626,145.067a1.892,1.892,0,1,0,1.892,1.892A1.894,1.894,0,0,0,61.626,145.067Zm0,2.838a.946.946,0,1,1,.946-.946A.947.947,0,0,1,61.626,147.905Z" transform="translate(-59.734 -145.067)" fill="#824bef"/>
    </g>
  </g>
  <g id="Grupo_394" data-name="Grupo 394" transform="translate(2.365 12.772)">
    <g id="Grupo_393" data-name="Grupo 393">
      <path id="Caminho_293" data-name="Caminho 293" d="M46.878,230.4H44.133a1.448,1.448,0,0,0-1.466,1.426v1.247a.473.473,0,0,0,.236.41,5.177,5.177,0,0,0,5.2,0,.473.473,0,0,0,.236-.409v-1.247A1.448,1.448,0,0,0,46.878,230.4Zm.52,2.391a4.289,4.289,0,0,1-3.784,0v-.965a.5.5,0,0,1,.52-.481h2.745a.5.5,0,0,1,.52.481v.965Z" transform="translate(-42.667 -230.4)" fill="#824bef"/>
    </g>
  </g>
  <g id="Grupo_396" data-name="Grupo 396" transform="translate(11.353)">
    <g id="Grupo_395" data-name="Grupo 395">
      <path id="Caminho_294" data-name="Caminho 294" d="M210,0a5.2,5.2,0,1,0,5.2,5.2A5.21,5.21,0,0,0,210,0Zm0,9.461A4.257,4.257,0,1,1,214.261,5.2,4.262,4.262,0,0,1,210,9.461Z" transform="translate(-204.8)" fill="#824bef"/>
    </g>
  </g>
  <g id="Grupo_398" data-name="Grupo 398" transform="translate(14.664 1.892)">
    <g id="Grupo_397" data-name="Grupo 397">
      <path id="Caminho_295" data-name="Caminho 295" d="M266.426,34.133a1.892,1.892,0,1,0,1.892,1.892A1.894,1.894,0,0,0,266.426,34.133Zm0,2.838a.946.946,0,1,1,.946-.946A.947.947,0,0,1,266.426,36.971Z" transform="translate(-264.534 -34.133)" fill="#824bef"/>
    </g>
  </g>
  <g id="Grupo_400" data-name="Grupo 400" transform="translate(13.718 6.623)">
    <g id="Grupo_399" data-name="Grupo 399">
      <path id="Caminho_296" data-name="Caminho 296" d="M251.678,119.467h-2.745a1.448,1.448,0,0,0-1.466,1.426v1.247a.473.473,0,0,0,.236.41,5.177,5.177,0,0,0,5.2,0,.473.473,0,0,0,.236-.409v-1.247A1.448,1.448,0,0,0,251.678,119.467Zm.52,2.391a4.289,4.289,0,0,1-3.784,0v-.965a.5.5,0,0,1,.52-.481h2.745a.5.5,0,0,1,.52.481v.965Z" transform="translate(-247.467 -119.467)" fill="#824bef"/>
    </g>
  </g>
  <g id="Grupo_402" data-name="Grupo 402" transform="translate(8.075 4.73)">
    <g id="Grupo_401" data-name="Grupo 401">
      <path id="Caminho_297" data-name="Caminho 297" d="M149.782,85.5a.474.474,0,0,0-.667-.052l-3.278,2.805a.473.473,0,1,0,.615.719l3.278-2.805A.473.473,0,0,0,149.782,85.5Z" transform="translate(-145.671 -85.333)" fill="#824bef"/>
    </g>
  </g>
  <g id="Grupo_404" data-name="Grupo 404" transform="translate(18.922 8.515)">
    <g id="Grupo_403" data-name="Grupo 403">
      <path id="Caminho_298" data-name="Caminho 298" d="M345.023,157.584l-2.838-3.784a.473.473,0,0,0-.757.567l2.838,3.784a.473.473,0,0,0,.757-.567Z" transform="translate(-341.333 -153.61)" fill="#824bef"/>
    </g>
  </g>
  <g id="Grupo_406" data-name="Grupo 406" transform="translate(15.235 18.878)">
    <g id="Grupo_405" data-name="Grupo 405">
      <path id="Caminho_299" data-name="Caminho 299" d="M278.327,340.729a.473.473,0,0,0-.662-.095l-2.642,1.982a.473.473,0,0,0,.568.756l2.642-1.982A.472.472,0,0,0,278.327,340.729Z" transform="translate(-274.833 -340.54)" fill="#824bef"/>
    </g>
  </g>
  <g id="Grupo_408" data-name="Grupo 408" transform="translate(2.838 22.706)">
    <g id="Grupo_407" data-name="Grupo 407">
      <path id="Caminho_300" data-name="Caminho 300" d="M54.984,409.6H51.673a.473.473,0,1,0,0,.946h3.311a.473.473,0,0,0,0-.946Z" transform="translate(-51.2 -409.6)" fill="#824bef"/>
    </g>
  </g>
  <g id="Grupo_410" data-name="Grupo 410" transform="translate(3.311)">
    <g id="Grupo_409" data-name="Grupo 409">
      <path id="Caminho_301" data-name="Caminho 301" d="M61.625,0a1.892,1.892,0,1,0,1.892,1.892A1.894,1.894,0,0,0,61.625,0Zm0,2.838a.946.946,0,1,1,.946-.946A.947.947,0,0,1,61.625,2.838Z" transform="translate(-59.733)" fill="#824bef"/>
    </g>
  </g>
  <g id="Grupo_412" data-name="Grupo 412" transform="translate(4.731 2.838)">
    <g id="Grupo_411" data-name="Grupo 411">
      <path id="Caminho_302" data-name="Caminho 302" d="M85.807,51.2a.473.473,0,0,0-.473.473v3.311a.473.473,0,0,0,.946,0V51.673A.473.473,0,0,0,85.807,51.2Z" transform="translate(-85.334 -51.2)" fill="#824bef"/>
    </g>
  </g>
</svg>
