<svg xmlns="http://www.w3.org/2000/svg" width="29.339" height="27.563" viewBox="0 0 29.339 27.563">
  <g id="beach-umbrella" transform="translate(0.15 0.15)">
    <path id="Caminho_303" data-name="Caminho 303" d="M37.454,9.815a.454.454,0,0,0,.454-.454V8.454a.454.454,0,0,0-.907,0v.907A.454.454,0,0,0,37.454,9.815Z" transform="translate(-20.212 -5.731)" fill="#824bef" stroke="#824bef" stroke-width="0.3"/>
    <path id="Caminho_304" data-name="Caminho 304" d="M37.454,15.815a.454.454,0,0,0,.454-.454v-.907a.454.454,0,0,0-.907,0v.907A.454.454,0,0,0,37.454,15.815Z" transform="translate(-20.212 -9.009)" fill="#824bef" stroke="#824bef" stroke-width="0.3"/>
    <path id="Caminho_305" data-name="Caminho 305" d="M37.454,21.815a.454.454,0,0,0,.454-.454v-.907a.454.454,0,0,0-.907,0v.907A.454.454,0,0,0,37.454,21.815Z" transform="translate(-20.212 -12.286)" fill="#824bef" stroke="#824bef" stroke-width="0.3"/>
    <path id="Caminho_306" data-name="Caminho 306" d="M54.454,15.815a.454.454,0,0,0,.454-.454v-.907a.454.454,0,0,0-.907,0v.907A.454.454,0,0,0,54.454,15.815Z" transform="translate(-29.498 -9.009)" fill="#824bef" stroke="#824bef" stroke-width="0.3"/>
    <path id="Caminho_307" data-name="Caminho 307" d="M54,21.361a.454.454,0,0,0,.907,0v-.907a.454.454,0,0,0-.907,0Z" transform="translate(-29.498 -12.286)" fill="#824bef" stroke="#824bef" stroke-width="0.3"/>
    <path id="Caminho_308" data-name="Caminho 308" d="M26.361,38h-.907a.454.454,0,0,0,0,.907h.907a.454.454,0,0,0,0-.907Z" transform="translate(-13.657 -22.119)" fill="#824bef" stroke="#824bef" stroke-width="0.3"/>
    <path id="Caminho_309" data-name="Caminho 309" d="M19.454,20a.454.454,0,0,0-.454.454v.907a.454.454,0,0,0,.907,0v-.907A.454.454,0,0,0,19.454,20Z" transform="translate(-10.379 -12.286)" fill="#824bef" stroke="#824bef" stroke-width="0.3"/>
    <path id="Caminho_310" data-name="Caminho 310" d="M9.454,5.815a.454.454,0,0,0,.454-.454V4.454a.454.454,0,0,0-.907,0v.907A.454.454,0,0,0,9.454,5.815Z" transform="translate(-4.916 -3.546)" fill="#824bef" stroke="#824bef" stroke-width="0.3"/>
    <path id="Caminho_311" data-name="Caminho 311" d="M29.454,51.907h.907a.454.454,0,0,0,0-.907h-.907a.454.454,0,0,0,0,.907Z" transform="translate(-15.842 -29.221)" fill="#824bef" stroke="#824bef" stroke-width="0.3"/>
    <path id="Caminho_312" data-name="Caminho 312" d="M22.454,53a.454.454,0,0,0,0,.907h.907a.454.454,0,0,0,0-.907Z" transform="translate(-12.018 -30.313)" fill="#824bef" stroke="#824bef" stroke-width="0.3"/>
    <path id="Caminho_313" data-name="Caminho 313" d="M1.361,61H.454a.454.454,0,0,0,0,.907h.907a.454.454,0,0,0,0-.907Z" transform="translate(0 -34.683)" fill="#824bef" stroke="#824bef" stroke-width="0.3"/>
    <path id="Caminho_314" data-name="Caminho 314" d="M20.361,38h-.907a.454.454,0,0,0,0,.907h.907a.454.454,0,0,0,0-.907Z" transform="translate(-10.379 -22.119)" fill="#824bef" stroke="#824bef" stroke-width="0.3"/>
    <path id="Caminho_315" data-name="Caminho 315" d="M13.454,38.907h.907a.454.454,0,0,0,0-.907h-.907a.454.454,0,0,0,0,.907Z" transform="translate(-7.101 -22.119)" fill="#824bef" stroke="#824bef" stroke-width="0.3"/>
    <path id="Caminho_316" data-name="Caminho 316" d="M28.585,12.982h-.454V6.176a.454.454,0,0,0-.279-.419L22.408,3.489a.454.454,0,0,0-.628.419V6.176a.454.454,0,0,0,.907,0V4.588l4.537,1.891v6.5H22.687V7.991a.454.454,0,0,0-.907,0v4.991H20.418V3.454A.454.454,0,0,0,19.964,3H17.7a.454.454,0,0,0,0,.907h1.815v9.075H14.973v-2.72h0V3.907h.907a.454.454,0,0,0,0-.907H14.52a.454.454,0,0,0-.454.454V9.572L11.522,8.483a.454.454,0,1,0-.358.834l2.9,1.243v2.422H1.361V10.873l1.432-1.79,1.914,1.532a.454.454,0,0,0,.579-.01L8.248,8.066l1.1.47A.454.454,0,1,0,9.7,7.7L8.346,7.119a.451.451,0,0,0-.474.073L4.981,9.67,3.006,8.09a.454.454,0,0,0-.637.071L.554,10.43a.454.454,0,0,0-.1.284v2.269a.454.454,0,0,0,0,.907H28.585a.454.454,0,0,0,0-.907Z" transform="translate(0 -3)" fill="#824bef" stroke="#824bef" stroke-width="0.3"/>
    <path id="Caminho_317" data-name="Caminho 317" d="M13.612,33H.454a.454.454,0,0,0,0,.907h13.13c.042,0,4.239.293,6.066,2.57a4.009,4.009,0,0,1,.774,3.26C19.366,46.506,4.712,45.714,4.537,45.7H3.176a.454.454,0,0,0,0,.907H4.51c.062,0,.675.039,1.633.039a37.614,37.614,0,0,0,6.21-.5c5.368-.927,8.467-3.1,8.964-6.276a4.88,4.88,0,0,0-.964-3.97C18.275,33.318,13.828,33.012,13.612,33Z" transform="translate(0 -19.388)" fill="#824bef" stroke="#824bef" stroke-width="0.3"/>
    <path id="Caminho_318" data-name="Caminho 318" d="M51.5,30.133a.454.454,0,0,0-.642,0l-2.722,2.722a.454.454,0,0,0,.321.775h2.269v3.176a.454.454,0,0,0,.907,0V33.63H53.9a.454.454,0,0,0,.321-.775Zm-1.948,2.589L51.176,31.1,52.8,32.723Z" transform="translate(-26.221 -17.749)" fill="#824bef" stroke="#824bef" stroke-width="0.3"/>
    <path id="Caminho_319" data-name="Caminho 319" d="M51.5,47.133a.454.454,0,0,0-.642,0l-2.722,2.722a.454.454,0,0,0,.321.775h2.269v3.176a.454.454,0,0,0,.907,0V50.63H53.9a.454.454,0,0,0,.321-.775Zm-1.948,2.589L51.176,48.1,52.8,49.723Z" transform="translate(-26.221 -27.036)" fill="#824bef" stroke="#824bef" stroke-width="0.3"/>
  </g>
</svg>
