<svg id="Grupo_101" data-name="Grupo 101" xmlns="http://www.w3.org/2000/svg" width="34" height="38.25" viewBox="0 0 34 38.25">
  <path id="Caminho_131" data-name="Caminho 131" d="M644.558,321.371a.49.49,0,0,0-.461,0l-16.513,8.773a.482.482,0,0,0-.25.511L628.811,339a26.623,26.623,0,0,0,10.218,16.685l5,3.786a.49.49,0,0,0,.294.1h0a.487.487,0,0,0,.29-.1l4.859-3.631a26.589,26.589,0,0,0,10.353-16.782l1.488-8.4a.48.48,0,0,0-.249-.509Zm14.312,17.516a25.635,25.635,0,0,1-9.98,16.178l-4.561,3.408-4.706-3.562a25.668,25.668,0,0,1-9.85-16.084l-1.414-8,15.97-8.485,15.97,8.485Z" transform="translate(-627.327 -321.314)" fill="#4c68ef"/>
  <path id="Caminho_132" data-name="Caminho 132" d="M640.12,351.007l1.091,6.071a19.749,19.749,0,0,0,7.717,12.407l3.7,2.755a.805.805,0,0,0,.961,0l3.591-2.642A19.725,19.725,0,0,0,665,357.122l1.1-6.115a.761.761,0,0,0-.4-.812l-5.278-2.761-.742,1.365,4.762,2.491-1,5.566a18.2,18.2,0,0,1-7.213,11.517l-3.109,2.287-3.218-2.4a18.216,18.216,0,0,1-7.119-11.447l-1-5.525,4.761-2.491-.742-1.365-5.275,2.759A.763.763,0,0,0,640.12,351.007Z" transform="translate(-636.193 -339.433)"/>
  <path id="Caminho_133" data-name="Caminho 133" d="M669.478,335.941l.727,1.37,3.752-2.317,3.754,2.318.727-1.37-4.115-2.206a.772.772,0,0,0-.733,0Z" transform="translate(-656.567 -329.867)"/>
  <path id="Caminho_134" data-name="Caminho 134" d="M671.136,372.8h.035a.783.783,0,0,0,.588-.266l7.414-8.474L678,363.034l-6.781,7.749-2.5-3.337-1.251.938,3.08,4.107A.783.783,0,0,0,671.136,372.8Z" transform="translate(-655.17 -350.255)" fill="#4c68ef"/>
  <g id="Grupo_327" data-name="Grupo 327" transform="translate(16.219 10.613)">
    <rect id="Ret창ngulo_128" data-name="Ret창ngulo 128" width="1.868" height="1.868"/>
  </g>
  <rect id="Ret창ngulo_131" data-name="Ret창ngulo 131" width="1.868" height="1.869" transform="translate(16.15 25.87)"/>
</svg>
