<svg id="Logo_M4U_negativo" data-name="Logo M4U negativo" xmlns="http://www.w3.org/2000/svg" xmlns:xlink="http://www.w3.org/1999/xlink" width="96" height="34.003" viewBox="0 0 96 34.003">
  <defs>
    <clipPath id="clip-path">
      <path id="Caminho_16" data-name="Caminho 16" d="M10.435-80H4.743A4.733,4.733,0,0,0,0-75.277V-50.72A4.733,4.733,0,0,0,4.743-46h24.19a4.722,4.722,0,0,0,3.795-7.556l-18.5-24.558A4.75,4.75,0,0,0,10.435-80m0,2.55a2.24,2.24,0,0,1,1.784.882l18.5,24.558a2.086,2.086,0,0,1,.215,2.231,2.177,2.177,0,0,1-2,1.231H4.743A2.2,2.2,0,0,1,2.527-50.72V-75.277A2.2,2.2,0,0,1,4.743-77.45h5.692" transform="translate(0 80)" fill="#fff" stroke="#fff" stroke-width="1" clip-rule="evenodd"/>
    </clipPath>
    <clipPath id="clip-path-2">
      <path id="Caminho_15" data-name="Caminho 15" d="M-60,6094.425H478.949V-177H-60Z" transform="translate(60 177)" fill="#fff"/>
    </clipPath>
    <clipPath id="clip-path-3">
      <path id="Caminho_19" data-name="Caminho 19" d="M38.257-80H32.707a4.662,4.662,0,0,0-3.742,1.889L17.035-62.054A4.726,4.726,0,0,0,20.778-54.5H34.111a.471.471,0,0,1,.468.473V-46h3.7c.141,0,.28-.009.419-.02l.106-.012c.136-.015.267-.035.4-.06l.022,0a4.634,4.634,0,0,0,2.054-.981h0c.108-.089.212-.183.311-.281.038-.037.073-.076.11-.116s.086-.092.126-.139a4.677,4.677,0,0,0,1.123-2.424c.005-.031.011-.063.015-.094.009-.07.016-.139.021-.209.01-.113.016-.226.018-.34,0-.013,0-.026,0-.041V-75.277A4.734,4.734,0,0,0,38.257-80m0,2.55a2.2,2.2,0,0,1,2.217,2.173v24.485l0,.08c0,.051,0,.1-.009.167,0,.032-.006.064-.007.068l-.008.052,0,.019a2.155,2.155,0,0,1-.523,1.114l-.048.052-.062.067c-.045.045-.094.088-.145.13a2.109,2.109,0,0,1-.92.444h0l-.031.006a1.8,1.8,0,0,1-.2.029l-.045.005h0c-.069.007-.139.011-.207.012h-1.16v-5.478a3.013,3.013,0,0,0-2.995-3.023H20.778a2.1,2.1,0,0,1-1.925-1.2,2.136,2.136,0,0,1,.2-2.276L30.985-76.581a2.158,2.158,0,0,1,1.722-.869h5.549" transform="translate(-16.091 80)" fill="#fff" clip-rule="evenodd"/>
    </clipPath>
    <clipPath id="clip-path-5">
      <path id="Caminho_22" data-name="Caminho 22" d="M205.789-56.592v9.287a4.546,4.546,0,0,1-4.632,4.442,4.546,4.546,0,0,1-4.632-4.442v-9.287H194v9.287a7.024,7.024,0,0,0,7.158,6.864,7.024,7.024,0,0,0,7.158-6.864v-9.287Z" transform="translate(-194 56.592)" fill="#fff" clip-rule="evenodd"/>
    </clipPath>
    <clipPath id="clip-path-7">
      <path id="Caminho_25" data-name="Caminho 25" d="M166.1-47.709h-7.158a.413.413,0,0,1-.421-.4v-8.479H156v8.479a2.892,2.892,0,0,0,2.947,2.826H166.1v4.845h2.526V-56.592H166.1Z" transform="translate(-156 56.592)" fill="#fff" clip-rule="evenodd"/>
    </clipPath>
    <clipPath id="clip-path-9">
      <path id="Caminho_28" data-name="Caminho 28" d="M123.843-56.237,118-50.633l-5.844-5.6a1.3,1.3,0,0,0-1.376-.262A1.211,1.211,0,0,0,110-55.38v14.939h2.526V-52.456l4.58,4.392a1.3,1.3,0,0,0,1.786,0l4.581-4.392v12.015H126V-55.38a1.211,1.211,0,0,0-.78-1.119A1.3,1.3,0,0,0,123.843-56.237Z" transform="translate(-110 56.592)" fill="#fff" clip-rule="evenodd"/>
    </clipPath>
  </defs>
  <g id="Grupo_42" data-name="Grupo 42" clip-path="url(#clip-path)">
    <g id="Grupo_41" data-name="Grupo 41" transform="translate(-25.263 -41.229)" clip-path="url(#clip-path-2)">
      <path id="Caminho_14" data-name="Caminho 14" d="M-5-85H32.9v38.253H-5Z" transform="translate(28.158 124.104)" fill="#fff"/>
    </g>
  </g>
  <g id="Grupo_44" data-name="Grupo 44" transform="translate(6.775)" clip-path="url(#clip-path-3)">
    <g id="Grupo_43" data-name="Grupo 43" transform="translate(-32.038 -41.229)" clip-path="url(#clip-path-2)">
      <path id="Caminho_17" data-name="Caminho 17" d="M11.091-85h31.12v38.253H11.091Z" transform="translate(18.842 124.104)" fill="#fff"/>
    </g>
  </g>
  <g id="Grupo_46" data-name="Grupo 46" transform="translate(81.684 9.949)" clip-path="url(#clip-path-5)">
    <g id="Grupo_45" data-name="Grupo 45" transform="translate(-106.947 -51.178)" clip-path="url(#clip-path-2)">
      <path id="Caminho_20" data-name="Caminho 20" d="M189-61.592h18.526v20.4H189Z" transform="translate(-84.157 110.645)" fill="#fff"/>
    </g>
  </g>
  <g id="Grupo_48" data-name="Grupo 48" transform="translate(65.684 9.949)" clip-path="url(#clip-path-7)">
    <g id="Grupo_47" data-name="Grupo 47" transform="translate(-90.947 -51.178)" clip-path="url(#clip-path-2)">
      <path id="Caminho_23" data-name="Caminho 23" d="M151-61.592h16.842v20.4H151Z" transform="translate(-62.157 110.645)" fill="#fff"/>
    </g>
  </g>
  <g id="Grupo_50" data-name="Grupo 50" transform="translate(46.316 9.949)" clip-path="url(#clip-path-9)">
    <g id="Grupo_49" data-name="Grupo 49" transform="translate(-71.579 -51.178)" clip-path="url(#clip-path-2)">
      <path id="Caminho_26" data-name="Caminho 26" d="M105-61.592h20.211v20.4H105Z" transform="translate(-35.526 110.645)" fill="#fff"/>
    </g>
  </g>
</svg>
