<svg id="play-button_1_" data-name="play-button (1)" xmlns="http://www.w3.org/2000/svg" width="55.016" height="55.016" viewBox="0 0 55.016 55.016">
  <g id="Grupo_358" data-name="Grupo 358">
    <g id="Grupo_357" data-name="Grupo 357">
      <path id="Caminho_261" data-name="Caminho 261" d="M27.508,0A27.508,27.508,0,1,0,55.016,27.508,27.539,27.539,0,0,0,27.508,0Zm0,52.723A25.216,25.216,0,1,1,52.723,27.508,25.244,25.244,0,0,1,27.508,52.723Z" transform="translate(0)" fill="#fff"/>
      <path id="Caminho_262" data-name="Caminho 262" d="M209.813,159.829l-16.046-10.315a1.146,1.146,0,0,0-1.766.964v20.631a1.146,1.146,0,0,0,1.766.964l16.046-10.315a1.146,1.146,0,0,0,0-1.927Zm-15.52,9.179V152.577l12.78,8.216Z" transform="translate(-171.369 -133.285)" fill="#fff"/>
      <path id="Caminho_263" data-name="Caminho 263" d="M21.768,18.084V36.506l15.257-9.154Z" transform="translate(0)" fill="#fff"/>
    </g>
  </g>
</svg>
